<?xml version="1.0" encoding="UTF-8"?>
<svg id="_ëîé_1" data-name="‘ëîé_1" xmlns="http://www.w3.org/2000/svg" viewBox="0 0 500 500">
  <defs>
    <style>
      .cls-1 {
        fill: #fff;
      }
    </style>
  </defs>
  <path d="M500,250C500,111.93,388.07,0,250,0S0,111.93,0,250c0,124.78,91.42,228.21,210.94,246.96v-174.7h-63.48v-72.27h63.48v-55.08c0-62.65,37.32-97.26,94.43-97.26,27.35,0,55.96,4.88,55.96,4.88v61.52h-31.53c-31.06,0-40.74,19.27-40.74,39.04v46.9h69.33l-11.08,72.27h-58.25v174.7c119.52-18.75,210.94-122.18,210.94-246.96Z"/>
  <path class="cls-1" d="M347.31,322.27l11.08-72.27h-69.33v-46.9c0-19.77,9.68-39.04,40.74-39.04h31.53v-61.52s-28.61-4.88-55.96-4.88c-57.1,0-94.43,34.61-94.43,97.26v55.08h-63.48v72.27h63.48v174.7c12.73,2,25.77,3.04,39.06,3.04s26.33-1.04,39.06-3.04v-174.7h58.25Z"/>
</svg>