<?xml version="1.0" encoding="UTF-8"?>
<svg id="_ëîé_1" data-name="‘ëîé_1" xmlns="http://www.w3.org/2000/svg" viewBox="0 0 500 500">
  <defs>
    <style>
      .cls-1 {
        fill: #fff;
      }
    </style>
  </defs>
  <circle cx="250" cy="250" r="250"/>
  <g>
    <path class="cls-1" d="M327.6,155.42c-9.49,0-17.18,7.69-17.18,17.18s7.69,17.19,17.18,17.19,17.19-7.69,17.19-17.19-7.69-17.18-17.19-17.18Z"/>
    <path class="cls-1" d="M251.2,177.46c-39.8,0-72.19,32.38-72.19,72.19s32.38,72.19,72.19,72.19,72.19-32.38,72.19-72.19-32.38-72.19-72.19-72.19Zm0,118.43c-25.5,0-46.24-20.74-46.24-46.24s20.74-46.24,46.24-46.24,46.24,20.74,46.24,46.24-20.74,46.24-46.24,46.24Z"/>
    <path class="cls-1" d="M308.51,396.21h-117.03c-48.55,0-88.05-39.5-88.05-88.05v-117.03c0-48.55,39.5-88.05,88.05-88.05h117.03c48.55,0,88.05,39.5,88.05,88.05v117.03c0,48.55-39.5,88.05-88.05,88.05ZM191.48,130.66c-33.34,0-60.47,27.12-60.47,60.47v117.03c0,33.34,27.12,60.47,60.47,60.47h117.03c33.34,0,60.47-27.12,60.47-60.47v-117.03c0-33.34-27.13-60.47-60.47-60.47h-117.03Z"/>
  </g>
</svg>