<?xml version="1.0" encoding="UTF-8"?>
<svg id="_ëîé_1" data-name="‘ëîé_1" xmlns="http://www.w3.org/2000/svg" viewBox="0 0 500 500">
  <defs>
    <style>
      .cls-1 {
        fill: #fff;
      }
    </style>
  </defs>
  <circle cx="250" cy="250" r="250"/>
  <path class="cls-1" d="M145.16,203.44h48.42v155.54h-48.42V203.44Zm24.22-77.29c15.48,0,28.03,12.56,28.03,28.01s-12.55,28.05-28.03,28.05-28.07-12.58-28.07-28.05,12.54-28.01,28.07-28.01"/>
  <path class="cls-1" d="M223.91,203.44h46.38v21.28h.63c6.47-12.24,22.24-25.13,45.78-25.13,48.95,0,57.97,32.19,57.97,74.08v85.31h-48.31v-75.62c0-18.05-.35-41.25-25.13-41.25s-29.01,19.65-29.01,39.93v76.94h-48.32V203.44Z"/>
</svg>