<?xml version="1.0" encoding="utf-8"?>
<!-- Generator: Adobe Illustrator 26.5.0, SVG Export Plug-In . SVG Version: 6.00 Build 0)  -->
<svg version="1.1" id="Warstwa_1" xmlns="http://www.w3.org/2000/svg" xmlns:xlink="http://www.w3.org/1999/xlink" x="0px" y="0px"
	 viewBox="0 0 335.87 380.27" style="enable-background:new 0 0 335.87 380.27;" xml:space="preserve">
<style type="text/css">
	.st0{fill:#29284A;}
	.st1{fill:#2670B7;}
	.st2{fill:#2A294B;}
</style>
<g>
	<g>
		<g>
			<path class="st0" d="M195.08,198.87v-17.05l11.93-3.41V94.16l26.06-4.73l29.66,8.76c0,0,1.27-0.33,1.3,1.99
				c0.03,2.32-0.2,15.85-0.2,15.85l25.73,7.87c0,0,1.83,0.64,1.83,3.76s0,91.67,0,91.67l-73.56,16.13v-29.07L195.08,198.87z"/>
			<path class="st1" d="M109.3,265.26c-0.1,0-0.2-0.1-0.2-0.2v-0.8c0-0.1,0.1-0.2,0.2-0.2s0.2,0.1,0.2,0.2v0.8
				C109.6,265.06,109.5,265.26,109.3,265.26L109.3,265.26L109.3,265.26L109.3,265.26z"/>
		</g>
	</g>
	<g>
		<path class="st1" d="M291.38,219.33c-0.1,0-0.2-0.1-0.2-0.2v-91.87c0-1.4-0.9-2.71-2.3-3.11l-25.05-7.62v-16.35
			c0-0.9-0.6-1.71-1.5-1.91l-28.56-7.92c-0.5-0.1-1-0.2-1.4-0.1l-25.35,3.91v84.25l-11.62,3.61c-0.1,0-0.3,0-0.3-0.2
			c0-0.1,0-0.3,0.2-0.3l11.32-3.51V93.76h0.2l25.25-4.01c0.5-0.1,1.1,0,1.6,0.1l28.56,7.92c1.1,0.3,1.8,1.3,1.8,2.41v15.85
			l24.75,7.52c1.6,0.5,2.61,1.91,2.61,3.61v91.97C291.59,219.23,291.49,219.33,291.38,219.33L291.38,219.33L291.38,219.33
			L291.38,219.33z"/>
		<path class="st1" d="M239.88,103.39c-0.5,0-0.9-0.1-1.4-0.2l-28.56-7.12c-0.1,0-0.2-0.2-0.2-0.3s0.2-0.2,0.3-0.2l28.56,7.12
			c0.8,0.2,1.5,0.2,2.3,0.1l21.24-4.11c0.1,0,0.1-0.1,0.1-0.1s0-0.1-0.1-0.1l-8.62-2.41c-0.1,0-0.2-0.2-0.2-0.3s0.2-0.2,0.3-0.2
			l8.62,2.41c0.3,0.1,0.5,0.3,0.5,0.6c0,0.3-0.2,0.5-0.5,0.6l-21.14,4.11C240.68,103.39,240.28,103.39,239.88,103.39L239.88,103.39
			L239.88,103.39L239.88,103.39z"/>
		<path class="st1" d="M242.38,190.24L242.38,190.24l-3.11-1c-1.1-0.4-1.9-1.4-1.9-2.61v-62.89l2.41-0.6v-19.36
			c0-0.1,0.1-0.2,0.2-0.2c0.1,0,0.2,0.1,0.2,0.2v19.86l-2.41,0.6v62.48c0,1,0.6,1.81,1.5,2.11l3.11,1c0.1,0,0.2,0.2,0.2,0.3
			C242.58,190.14,242.48,190.24,242.38,190.24L242.38,190.24L242.38,190.24L242.38,190.24z"/>
		<path class="st1" d="M276.65,209.1v-12.64l-7.42,2.21h-0.1l-62.43-20.16c-0.1,0-0.2-0.2-0.2-0.3s0.2-0.2,0.3-0.2l62.33,20.16
			l7.92-2.31v12.64l14.03-3.91c0.1,0,0.3,0,0.3,0.2s0,0.3-0.2,0.3L276.65,209.1L276.65,209.1L276.65,209.1L276.65,209.1
			L276.65,209.1z"/>
		<path class="st1" d="M269.34,215.22c-0.1,0-0.2-0.1-0.2-0.2v-16.45c0-0.1,0.1-0.2,0.2-0.2c0.1,0,0.2,0.1,0.2,0.2v16.45
			C269.54,215.12,269.44,215.22,269.34,215.22L269.34,215.22L269.34,215.22L269.34,215.22z"/>
		<path class="st1" d="M218.03,206.89c-0.1,0-0.2-0.1-0.2-0.2c0-0.1,0-0.3,0.2-0.3l41.29-11.33c0.1,0,0.3,0,0.3,0.2
			c0,0.1,0,0.3-0.2,0.3L218.03,206.89L218.03,206.89L218.03,206.89L218.03,206.89L218.03,206.89z"/>
		<path class="st1" d="M234.06,219.13c-0.1,0-0.2-0.1-0.2-0.2s0-0.3,0.2-0.3c0.5-0.1,34.87-10.63,35.27-10.73c0.1,0,0.3,0,0.3,0.2
			c0,0.1,0,0.3-0.2,0.3C267.84,208.8,234.66,218.93,234.06,219.13L234.06,219.13L234.06,219.13L234.06,219.13L234.06,219.13z"/>
		<path class="st1" d="M276.95,196.46c-0.1,0-0.2-0.1-0.2-0.2v-66.5c0-0.1,0.1-0.2,0.2-0.2c0.1,0,0.2,0.1,0.2,0.2v66.5
			C277.15,196.36,277.05,196.46,276.95,196.46L276.95,196.46L276.95,196.46L276.95,196.46z"/>
		<path class="st1" d="M268.64,131.87c-0.8,0-1.6-0.1-2.51-0.3l-28.56-7.32c-0.1,0-0.2-0.2-0.2-0.3s0.2-0.2,0.3-0.2l28.56,7.32
			c1.6,0.4,3.31,0.4,4.91-0.1h0.1c4.11-1.1,12.73-3.51,16.94-4.61c0.4-0.1,0.6-0.5,0.7-0.7c0-0.3-0.1-0.7-0.4-0.9l-2.51-1.4
			c-0.1-0.1-0.2-0.2-0.1-0.3c0.1-0.1,0.2-0.2,0.3-0.1l2.51,1.4c0.5,0.3,0.8,0.8,0.7,1.4c-0.1,0.6-0.5,1-1,1.2
			c-4.31,1.1-12.93,3.51-16.94,4.61h-0.1C270.54,131.77,269.64,131.87,268.64,131.87L268.64,131.87L268.64,131.87L268.64,131.87z"/>
		<path class="st1" d="M239.98,123.75c-0.1,0-0.2-0.1-0.2-0.2s0-0.3,0.2-0.3l24.45-6.92c0.1,0,0.3,0,0.3,0.2c0,0.1,0,0.3-0.2,0.3
			L239.98,123.75C240.08,123.65,240.08,123.75,239.98,123.75L239.98,123.75L239.98,123.75L239.98,123.75z"/>
		<path class="st1" d="M232.56,185.93c-0.1,0-0.2-0.1-0.2-0.2V106.2l-9.62-2.41l-1.7,0.6v71.81c0,0.1-0.1,0.2-0.2,0.2
			c-0.1,0-0.2-0.1-0.2-0.2v-72.21l2.2-0.7l10.22,2.61v79.93C232.86,185.83,232.66,185.93,232.56,185.93L232.56,185.93L232.56,185.93
			L232.56,185.93z"/>
		<path class="st1" d="M230.16,109.51c-0.2,0-0.5,0-0.7-0.1l-8.52-2.31c-0.1,0-0.2-0.2-0.2-0.3s0.2-0.2,0.3-0.2l8.52,2.31
			c0.5,0.1,1,0.1,1.5-0.1l1.5-0.6c0.1,0,0.3,0,0.3,0.1s0,0.3-0.1,0.3l-1.5,0.6C230.86,109.41,230.46,109.51,230.16,109.51
			L230.16,109.51L230.16,109.51L230.16,109.51z"/>
		<path class="st1" d="M230.16,111.01c-0.2,0-0.5,0-0.7-0.1l-8.52-2.31c-0.1,0-0.2-0.2-0.2-0.3s0.2-0.2,0.3-0.2l8.52,2.31
			c0.5,0.1,1,0.1,1.5-0.1l1.5-0.6c0.1,0,0.3,0,0.3,0.1s0,0.3-0.1,0.3l-1.5,0.6C230.86,111.01,230.46,111.01,230.16,111.01
			L230.16,111.01L230.16,111.01L230.16,111.01z"/>
		<path class="st1" d="M230.16,113.22c-0.2,0-0.5,0-0.7-0.1l-8.52-2.31c-0.1,0-0.2-0.2-0.2-0.3s0.2-0.2,0.3-0.2l8.52,2.31
			c0.5,0.1,1,0.1,1.5-0.1l1.5-0.6c0.1,0,0.3,0,0.3,0.1s0,0.3-0.1,0.3l-1.5,0.6C230.86,113.12,230.46,113.22,230.16,113.22
			L230.16,113.22L230.16,113.22L230.16,113.22z"/>
		<path class="st1" d="M230.16,114.82c-0.2,0-0.5,0-0.7-0.1l-8.52-2.31c-0.1,0-0.2-0.2-0.2-0.3c0-0.1,0.2-0.2,0.3-0.2l8.52,2.31
			c0.5,0.1,1,0.1,1.5-0.1l1.5-0.6c0.1,0,0.3,0,0.3,0.1s0,0.3-0.1,0.3l-1.5,0.6C230.86,114.72,230.46,114.82,230.16,114.82
			L230.16,114.82L230.16,114.82L230.16,114.82z"/>
		<path class="st1" d="M230.16,117.23c-0.2,0-0.5,0-0.7-0.1l-8.52-2.31c-0.1,0-0.2-0.2-0.2-0.3s0.2-0.2,0.3-0.2l8.52,2.31
			c0.5,0.1,1,0.1,1.5-0.1l1.5-0.6c0.1,0,0.3,0,0.3,0.1s0,0.3-0.1,0.3l-1.5,0.6C230.86,117.13,230.46,117.23,230.16,117.23
			L230.16,117.23L230.16,117.23L230.16,117.23z"/>
		<path class="st1" d="M230.16,118.83c-0.2,0-0.5,0-0.7-0.1l-8.52-2.31c-0.1,0-0.2-0.2-0.2-0.3s0.2-0.2,0.3-0.2l8.52,2.31
			c0.5,0.1,1,0.1,1.5-0.1l1.5-0.6c0.1,0,0.3,0,0.3,0.1s0,0.3-0.1,0.3l-1.5,0.6C230.86,118.73,230.46,118.83,230.16,118.83
			L230.16,118.83L230.16,118.83L230.16,118.83z"/>
		<path class="st1" d="M230.16,121.04c-0.2,0-0.5,0-0.7-0.1l-8.52-2.31c-0.1,0-0.2-0.2-0.2-0.3s0.2-0.2,0.3-0.2l8.52,2.31
			c0.5,0.1,1,0.1,1.5-0.1l1.5-0.6c0.1,0,0.3,0,0.3,0.1s0,0.3-0.1,0.3l-1.5,0.6C230.86,120.94,230.46,121.04,230.16,121.04
			L230.16,121.04L230.16,121.04L230.16,121.04z"/>
		<path class="st1" d="M230.16,122.55c-0.2,0-0.5,0-0.7-0.1l-8.52-2.31c-0.1,0-0.2-0.2-0.2-0.3s0.2-0.2,0.3-0.2l8.52,2.31
			c0.5,0.1,1,0.1,1.5-0.1l1.5-0.6c0.1,0,0.3,0,0.3,0.1s0,0.3-0.1,0.3l-1.5,0.6C230.86,122.55,230.46,122.55,230.16,122.55
			L230.16,122.55L230.16,122.55L230.16,122.55z"/>
		<path class="st1" d="M230.06,125.05c-0.2,0-0.5,0-0.7-0.1l-6.11-1.71c-0.1,0-0.2-0.2-0.2-0.3s0.2-0.2,0.3-0.2l6.11,1.71
			c0.5,0.1,1,0.1,1.5-0.1l1.5-0.6c0.1,0,0.3,0,0.3,0.1s0,0.3-0.1,0.3l-1.5,0.6C230.86,124.95,230.46,125.05,230.06,125.05
			L230.06,125.05L230.06,125.05L230.06,125.05z"/>
		<path class="st1" d="M230.06,126.56c-0.2,0-0.5,0-0.7-0.1l-6.51-1.81c-0.1,0-0.2-0.2-0.2-0.3s0.2-0.2,0.3-0.2l6.51,1.81
			c0.5,0.1,1,0.1,1.5-0.1l1.5-0.6c0.1-0.1,0.3,0,0.3,0.1s0,0.3-0.1,0.3l-1.5,0.6C230.86,126.56,230.46,126.56,230.06,126.56
			L230.06,126.56L230.06,126.56L230.06,126.56z"/>
		<path class="st1" d="M230.16,129.26c-0.2,0-0.5,0-0.7-0.1l-7.72-2.11c-0.1,0-0.2-0.2-0.2-0.3c0-0.1,0.2-0.2,0.3-0.2l7.72,2.11
			c0.5,0.1,1,0.1,1.5-0.1l1.5-0.6c0.1,0,0.3,0,0.3,0.1s0,0.3-0.1,0.3l-1.5,0.6C230.86,129.16,230.46,129.26,230.16,129.26
			L230.16,129.26L230.16,129.26L230.16,129.26z"/>
		<path class="st1" d="M230.16,130.87c-0.2,0-0.5,0-0.7-0.1l-5.71-1.6c-0.1,0-0.2-0.2-0.2-0.3c0-0.1,0.2-0.2,0.3-0.2l5.71,1.6
			c0.5,0.1,1,0.1,1.5-0.1l1.5-0.6c0.1,0,0.3,0,0.3,0.1s0,0.3-0.1,0.3l-1.5,0.6C230.86,130.77,230.46,130.87,230.16,130.87
			L230.16,130.87L230.16,130.87L230.16,130.87z"/>
		<path class="st1" d="M218.43,182.42c-0.1,0-0.2-0.1-0.2-0.2v-79.53l-9.62-2.41l-1.7,0.6v71.81c0,0.1-0.1,0.2-0.2,0.2
			c-0.1,0-0.2-0.1-0.2-0.2v-72.21l2.2-0.7l10.22,2.61v79.94C218.63,182.32,218.53,182.42,218.43,182.42L218.43,182.42L218.43,182.42
			L218.43,182.42z"/>
		<path class="st1" d="M215.93,106c-0.2,0-0.5,0-0.7-0.1l-8.52-2.31c-0.1,0-0.2-0.2-0.2-0.3c0-0.1,0.2-0.2,0.3-0.2l8.52,2.31
			c0.5,0.1,1,0.1,1.5-0.1l1.5-0.6c0.1-0.1,0.3,0,0.3,0.1c0,0.1,0,0.3-0.1,0.3l-1.5,0.6C216.63,105.9,216.33,106,215.93,106
			L215.93,106L215.93,106L215.93,106z"/>
		<path class="st1" d="M215.93,107.6c-0.2,0-0.5,0-0.7-0.1l-8.52-2.31c-0.1,0-0.2-0.2-0.2-0.3c0-0.1,0.2-0.2,0.3-0.2l8.52,2.31
			c0.5,0.1,1,0.1,1.5-0.1l1.5-0.6c0.1-0.1,0.3,0,0.3,0.1c0,0.1,0,0.3-0.1,0.3l-1.5,0.6C216.63,107.5,216.33,107.6,215.93,107.6
			L215.93,107.6L215.93,107.6L215.93,107.6z"/>
		<path class="st1" d="M215.93,109.71c-0.2,0-0.5,0-0.7-0.1l-8.52-2.31c-0.1,0-0.2-0.2-0.2-0.3c0-0.1,0.2-0.2,0.3-0.2l8.52,2.31
			c0.5,0.1,1,0.1,1.5-0.1l1.5-0.6c0.1-0.1,0.3,0,0.3,0.1c0,0.1,0,0.3-0.1,0.3l-1.5,0.6C216.63,109.61,216.33,109.71,215.93,109.71
			L215.93,109.71L215.93,109.71L215.93,109.71z"/>
		<path class="st1" d="M215.93,111.21c-0.2,0-0.5,0-0.7-0.1l-8.52-2.31c-0.1,0-0.2-0.2-0.2-0.3c0-0.1,0.2-0.2,0.3-0.2l8.52,2.31
			c0.5,0.1,1,0.1,1.5-0.1l1.5-0.6c0.1-0.1,0.3,0,0.3,0.1s0,0.3-0.1,0.3l-1.5,0.6C216.63,111.21,216.33,111.21,215.93,111.21
			L215.93,111.21L215.93,111.21L215.93,111.21z"/>
		<path class="st1" d="M215.93,113.72c-0.2,0-0.5,0-0.7-0.1l-8.52-2.31c-0.1,0-0.2-0.2-0.2-0.3s0.2-0.2,0.3-0.2l8.52,2.31
			c0.5,0.1,1,0.1,1.5-0.1l1.5-0.6c0.1-0.1,0.3,0,0.3,0.1s0,0.3-0.1,0.3l-1.5,0.6C216.63,113.62,216.33,113.72,215.93,113.72
			L215.93,113.72L215.93,113.72L215.93,113.72z"/>
		<path class="st1" d="M215.93,115.32c-0.2,0-0.5,0-0.7-0.1l-8.52-2.31c-0.1,0-0.2-0.2-0.2-0.3c0-0.1,0.2-0.2,0.3-0.2l8.52,2.31
			c0.5,0.1,1,0.1,1.5-0.1l1.5-0.6c0.1-0.1,0.3,0,0.3,0.1s0,0.3-0.1,0.3l-1.5,0.6C216.63,115.22,216.33,115.32,215.93,115.32
			L215.93,115.32L215.93,115.32L215.93,115.32z"/>
		<path class="st1" d="M215.93,117.43c-0.2,0-0.5,0-0.7-0.1l-8.52-2.31c-0.1,0-0.2-0.2-0.2-0.3c0-0.1,0.2-0.2,0.3-0.2l8.52,2.31
			c0.5,0.1,1,0.1,1.5-0.1l1.5-0.6c0.1-0.1,0.3,0,0.3,0.1s0,0.3-0.1,0.3l-1.5,0.6C216.63,117.33,216.33,117.43,215.93,117.43
			L215.93,117.43L215.93,117.43L215.93,117.43z"/>
		<path class="st1" d="M215.93,118.93c-0.2,0-0.5,0-0.7-0.1l-8.52-2.31c-0.1,0-0.2-0.2-0.2-0.3s0.2-0.2,0.3-0.2l8.52,2.31
			c0.5,0.1,1,0.1,1.5-0.1l1.5-0.6c0.1-0.1,0.3,0,0.3,0.1s0,0.3-0.1,0.3l-1.5,0.6C216.63,118.93,216.33,118.93,215.93,118.93
			L215.93,118.93L215.93,118.93L215.93,118.93z"/>
		<path class="st1" d="M215.93,121.54c-0.2,0-0.5,0-0.7-0.1l-6.11-1.71c-0.1,0-0.2-0.2-0.2-0.3c0-0.1,0.2-0.2,0.3-0.2l6.11,1.71
			c0.5,0.1,1,0.1,1.5-0.1l1.5-0.6c0.1-0.1,0.3,0,0.3,0.1s0,0.3-0.1,0.3l-1.5,0.6C216.63,121.44,216.33,121.54,215.93,121.54
			L215.93,121.54L215.93,121.54L215.93,121.54z"/>
		<path class="st1" d="M215.93,123.05c-0.2,0-0.5,0-0.7-0.1l-6.51-1.81c-0.1,0-0.2-0.2-0.2-0.3s0.2-0.2,0.3-0.2l6.51,1.81
			c0.5,0.1,1,0.1,1.5-0.1l1.5-0.6c0.1-0.1,0.3,0,0.3,0.1s0,0.3-0.1,0.3l-1.5,0.6C216.63,123.05,216.33,123.05,215.93,123.05
			L215.93,123.05L215.93,123.05L215.93,123.05z"/>
		<path class="st1" d="M215.93,125.75c-0.2,0-0.5,0-0.7-0.1l-7.72-2.11c-0.1,0-0.2-0.2-0.2-0.3s0.2-0.2,0.3-0.2l7.72,2.11
			c0.5,0.1,1,0.1,1.5-0.1l1.5-0.6c0.1,0,0.3,0,0.3,0.1s0,0.3-0.1,0.3l-1.5,0.6C216.63,125.65,216.33,125.75,215.93,125.75
			L215.93,125.75L215.93,125.75L215.93,125.75z"/>
		<path class="st1" d="M215.93,127.36c-0.2,0-0.5,0-0.7-0.1l-5.71-1.6c-0.1,0-0.2-0.2-0.2-0.3s0.2-0.2,0.3-0.2l5.71,1.6
			c0.5,0.1,1,0.1,1.5-0.1l1.5-0.6c0.1-0.1,0.3,0,0.3,0.1s0,0.3-0.1,0.3l-1.5,0.6C216.63,127.26,216.33,127.36,215.93,127.36
			L215.93,127.36L215.93,127.36L215.93,127.36z"/>
		<path class="st1" d="M268.24,135.78c-0.8,0-1.6-0.1-2.41-0.3l-28.16-7.32c-0.1,0-0.2-0.2-0.2-0.3c0-0.1,0.2-0.2,0.3-0.2
			l28.16,7.32c1.5,0.4,3.01,0.4,4.41,0l6.51-1.6c0.1,0,0.3,0,0.3,0.2c0,0.1,0,0.3-0.2,0.3l-6.41,1.6
			C269.74,135.68,269.04,135.78,268.24,135.78L268.24,135.78L268.24,135.78L268.24,135.78z"/>
		<path class="st1" d="M268.24,139.7c-0.8,0-1.6-0.1-2.41-0.3l-28.16-7.32c-0.1,0-0.2-0.2-0.2-0.3s0.2-0.2,0.3-0.2l28.16,7.32
			c1.5,0.4,3.01,0.4,4.41,0l6.51-1.6c0.1,0,0.3,0,0.3,0.2c0,0.1,0,0.3-0.2,0.3l-6.51,1.6C269.74,139.6,269.04,139.7,268.24,139.7
			L268.24,139.7L268.24,139.7L268.24,139.7z"/>
		<path class="st1" d="M268.24,144.31c-0.8,0-1.6-0.1-2.41-0.3l-24.65-6.42c-0.1,0-0.2-0.2-0.2-0.3c0-0.1,0.2-0.2,0.3-0.2
			l24.65,6.42c1.5,0.4,3.01,0.4,4.41,0l6.51-1.6c0.1,0,0.3,0,0.3,0.2c0,0.1,0,0.3-0.2,0.3l-6.51,1.6
			C269.74,144.21,269.04,144.31,268.24,144.31L268.24,144.31L268.24,144.31L268.24,144.31z"/>
		<path class="st1" d="M268.24,148.12c-0.8,0-1.6-0.1-2.41-0.3l-17.54-4.61c-0.1,0-0.2-0.2-0.2-0.3c0-0.1,0.2-0.2,0.3-0.2
			l17.54,4.61c1.5,0.4,3.01,0.4,4.41,0l6.51-1.6c0.1,0,0.3,0,0.3,0.2c0,0.1,0,0.3-0.2,0.3l-6.51,1.6
			C269.74,148.02,269.04,148.12,268.24,148.12L268.24,148.12L268.24,148.12L268.24,148.12z"/>
		<path class="st1" d="M268.24,149.12c-0.8,0-1.6-0.1-2.41-0.3l-12.23-3.21c-0.1,0-0.2-0.2-0.2-0.3s0.2-0.2,0.3-0.2l12.23,3.21
			c1.5,0.4,3.01,0.4,4.41,0l6.51-1.6c0.1,0,0.3,0,0.3,0.2c0,0.1,0,0.3-0.2,0.3l-6.51,1.6C269.74,149.02,269.04,149.12,268.24,149.12
			L268.24,149.12L268.24,149.12L268.24,149.12z"/>
		<path class="st1" d="M252.3,145.31L252.3,145.31l-9.22-2.41c-0.1,0-0.2-0.2-0.2-0.3s0.2-0.2,0.3-0.2l9.02,2.41
			c0.1,0,0.2,0.2,0.2,0.3C252.5,145.21,252.4,145.31,252.3,145.31L252.3,145.31L252.3,145.31L252.3,145.31z"/>
		<path class="st1" d="M268.24,152.33c-0.8,0-1.6-0.1-2.41-0.3L250,147.92c-0.1,0-0.2-0.2-0.2-0.3c0-0.1,0.2-0.2,0.3-0.2l15.83,4.11
			c1.5,0.4,3.01,0.4,4.41,0l6.51-1.6c0.1,0,0.3,0,0.3,0.2c0,0.1,0,0.3-0.2,0.3l-6.51,1.6C269.74,152.23,269.04,152.33,268.24,152.33
			L268.24,152.33L268.24,152.33L268.24,152.33z"/>
		<path class="st1" d="M249.2,147.62C249.2,147.62,249.1,147.62,249.2,147.62l-4.51-1.2c-0.1,0-0.2-0.2-0.2-0.3
			c0-0.1,0.2-0.2,0.3-0.2l4.51,1.2c0.1,0,0.2,0.2,0.2,0.3C249.4,147.62,249.3,147.62,249.2,147.62L249.2,147.62L249.2,147.62
			L249.2,147.62z"/>
		<path class="st1" d="M243.68,146.21C243.58,146.21,243.58,146.21,243.68,146.21l-1-0.3c-0.1,0-0.2-0.2-0.2-0.3
			c0-0.1,0.2-0.2,0.3-0.2l1,0.3c0.1,0,0.2,0.2,0.2,0.3C243.88,146.21,243.78,146.21,243.68,146.21L243.68,146.21L243.68,146.21
			L243.68,146.21z"/>
		<path class="st1" d="M268.24,156.65c-0.8,0-1.6-0.1-2.41-0.3l-19.14-5.01c-0.1,0-0.2-0.2-0.2-0.3s0.2-0.2,0.3-0.2l19.14,5.01
			c1.5,0.4,3.01,0.4,4.41,0l6.51-1.6c0.1,0,0.3,0,0.3,0.2c0,0.1,0,0.3-0.2,0.3l-6.51,1.6C269.74,156.65,269.04,156.65,268.24,156.65
			L268.24,156.65L268.24,156.65L268.24,156.65z"/>
		<path class="st1" d="M245.69,151.13L245.69,151.13l-1.2-0.3c-0.1,0-0.2-0.2-0.2-0.3s0.2-0.2,0.3-0.2l1.1,0.3
			c0.1,0,0.2,0.2,0.2,0.3S245.79,151.13,245.69,151.13L245.69,151.13L245.69,151.13L245.69,151.13z"/>
		<path class="st1" d="M277.26,204.49c-0.1,0-0.2-0.1-0.2-0.2s0-0.3,0.2-0.3l14.03-3.61c0.1,0,0.3,0,0.3,0.2c0,0.1,0,0.3-0.2,0.3
			L277.26,204.49L277.26,204.49L277.26,204.49L277.26,204.49L277.26,204.49z"/>
		<path class="st1" d="M277.26,200.88c-0.1,0-0.2-0.1-0.2-0.2s0-0.3,0.2-0.3l14.03-3.61c0.1,0,0.3,0,0.3,0.2c0,0.1,0,0.3-0.2,0.3
			L277.26,200.88L277.26,200.88L277.26,200.88L277.26,200.88L277.26,200.88z"/>
		<path class="st1" d="M287.38,193.96c-0.1,0-0.2-0.1-0.2-0.2s0-0.3,0.2-0.3l3.81-1c0.1,0,0.3,0,0.3,0.2c0,0.1,0,0.3-0.2,0.3
			L287.38,193.96L287.38,193.96L287.38,193.96L287.38,193.96L287.38,193.96z"/>
		<path class="st1" d="M277.26,196.66c-0.1,0-0.2-0.1-0.2-0.2s0-0.3,0.2-0.3l8.62-2.21c0.1,0,0.3,0,0.3,0.2c0,0.1,0,0.3-0.2,0.3
			L277.26,196.66L277.26,196.66L277.26,196.66L277.26,196.66L277.26,196.66z"/>
		<path class="st1" d="M277.26,192.45c-0.1,0-0.2-0.1-0.2-0.2s0-0.3,0.2-0.3l11.62-3.01c0.1,0,0.3,0,0.3,0.2c0,0.1,0,0.3-0.2,0.3
			L277.26,192.45L277.26,192.45L277.26,192.45L277.26,192.45L277.26,192.45z"/>
		<path class="st1" d="M287.38,185.73c-0.1,0-0.2-0.1-0.2-0.2s0-0.3,0.2-0.3l1-0.3c0.1,0,0.3,0,0.3,0.2c0,0.1,0,0.3-0.2,0.3
			L287.38,185.73L287.38,185.73L287.38,185.73L287.38,185.73L287.38,185.73z"/>
		<path class="st1" d="M277.26,188.34c-0.1,0-0.2-0.1-0.2-0.2s0-0.3,0.2-0.3l8.62-2.21c0.1,0,0.3,0,0.3,0.2c0,0.1,0,0.3-0.2,0.3
			L277.26,188.34L277.26,188.34L277.26,188.34L277.26,188.34L277.26,188.34z"/>
		<path class="st1" d="M293.59,172.29c-0.1,0-0.2-0.1-0.2-0.2v-25.47c0-0.1,0.1-0.2,0.2-0.2s0.2,0.1,0.2,0.2v25.47
			C293.79,172.19,293.69,172.29,293.59,172.29L293.59,172.29L293.59,172.29L293.59,172.29z"/>
		<path class="st1" d="M293.59,144.81c-0.1,0-0.2-0.1-0.2-0.2v-2.01c0-0.1,0.1-0.2,0.2-0.2s0.2,0.1,0.2,0.2v1.91
			C293.79,144.71,293.69,144.81,293.59,144.81L293.59,144.81L293.59,144.81L293.59,144.81z"/>
		<path class="st1" d="M291.38,218.93c-0.2,0-0.4-0.2-0.4-0.4v-91.67c0-1.4-0.9-2.61-2.2-3.01l-25.15-7.62V99.78
			c0-0.8-0.6-1.6-1.4-1.81l-28.46-7.82c-0.5-0.1-0.9-0.1-1.4-0.1l-24.95,3.91v84.05l-11.72,3.61c-0.2,0.1-0.4,0-0.5-0.2
			c-0.1-0.2,0-0.4,0.2-0.5l11.22-3.41V93.36l25.55-4.01c0.6-0.1,1.1,0,1.7,0.1l28.56,7.92c1.1,0.3,1.9,1.3,1.9,2.51v15.75
			l24.55,7.42c1.6,0.5,2.71,2.01,2.71,3.71v91.67C291.69,218.73,291.59,218.93,291.38,218.93L291.38,218.93L291.38,218.93
			L291.38,218.93z"/>
	</g>
</g>
<g>
	<path class="st0" d="M103.01,178.66l1.06-154.91c0,0,0.82-3.8,4.44-3.9c3.62-0.09,42.44-1.21,42.44-1.21s4.2,0.21,5.75,1.53
		s11.64,7.88,11.64,7.88s2.17,2.31,2.22,6.66c0.05,4.35,0.14,22.95,0.14,22.95l8.29-0.76c0,0,3.22-0.15,5.5,1.06
		c2.29,1.21,6.25,3.35,6.25,3.35s2.15,0.44,2.38,4.61c0.23,4.17,2.33,132.66,2.33,132.66l22.95,7.32v14.39l-54.94,24.51l0.6-44.82
		l-15.76-5.72l-12.03,3.11l0-6.42c0,0,0.33-2.47-3.41-3.81C129.13,185.81,103.01,178.66,103.01,178.66z"/>
	<g>
		<path class="st1" d="M109.67,264.97c-0.1,0-0.2-0.1-0.2-0.2v-0.8c0-0.1,0.1-0.2,0.2-0.2s0.2,0.1,0.2,0.2v0.8
			C109.97,264.77,109.87,264.97,109.67,264.97L109.67,264.97L109.67,264.97L109.67,264.97z"/>
		<path class="st1" d="M218.3,219.94c-0.1,0-0.2-0.1-0.2-0.2V206.6l-22.95-7.32v-0.2l-2.3-133.09c0-1.81-1-3.41-2.61-4.21
			l-6.41-3.41c-1.1-0.6-2.3-0.8-3.51-0.7l-10.12,0.7V33.59c0-2.51-1.2-4.71-3.31-6.12l-10.12-6.62c-1.7-1.1-3.81-1.71-5.81-1.6
			l-42.99,1.2c-2.1,0.1-3.81,1.81-3.81,3.91l-0.9,155.16c0,0.1-0.1,0.2-0.2,0.2l0,0c-0.1,0-0.2-0.1-0.2-0.2l0.8-155.16
			c0-2.41,1.9-4.31,4.31-4.41l42.99-1.3c2.1-0.1,4.31,0.5,6.11,1.71l10.12,6.62c2.2,1.4,3.51,3.91,3.51,6.52v24.17l9.42-0.8
			c1.3-0.1,2.61,0.2,3.81,0.8l6.41,3.41c1.7,0.9,2.81,2.71,2.81,4.61l2.3,132.89l22.95,7.32v13.44
			C218.6,219.74,218.5,219.94,218.3,219.94L218.3,219.94L218.3,219.94L218.3,219.94z"/>
		<path class="st1" d="M140.73,196.57c-0.1,0-0.2-0.1-0.2-0.2l-2.1-127.27c0-1.91,1.5-3.51,3.41-3.71l28.36-2.31v-4.91
			c0-0.1,0.1-0.2,0.2-0.2c0.1,0,0.2,0.1,0.2,0.2v5.32l-28.86,2.41c-1.7,0.1-2.91,1.5-2.91,3.21l2.1,127.27
			C141.03,196.47,140.93,196.57,140.73,196.57C140.83,196.57,140.73,196.57,140.73,196.57L140.73,196.57L140.73,196.57
			L140.73,196.57z"/>
		<path class="st1" d="M130.51,32.49c-3.21,0-6.41-0.7-9.22-2.01l-13.23-6.02c-0.8-0.4-1.4-1.2-1.5-2.11s0.4-1.81,1.2-2.31
			c0.1-0.1,0.3,0,0.3,0.1c0.1,0.1,0,0.3-0.1,0.3c-0.6,0.4-1,1.1-0.9,1.91c0.1,0.8,0.5,1.4,1.2,1.71l13.03,5.92
			c2.91,1.3,6.21,2.01,9.52,1.91l34.17-0.9c0.9,0,1.6-0.5,2-1.3c0.4-0.8,0.3-1.71-0.2-2.41c-0.1-0.1-0.1-0.3,0-0.3
			c0.1-0.1,0.3-0.1,0.3,0c0.6,0.9,0.8,1.91,0.3,2.91c-0.5,1-1.4,1.6-2.51,1.6l-34.17,0.9C130.81,32.49,130.71,32.49,130.51,32.49
			L130.51,32.49L130.51,32.49L130.51,32.49z"/>
		<path class="st1" d="M131.01,41.01c-3.71,0-7.52-0.8-11.02-2.21l-16.23-7.02c-0.1-0.1-0.2-0.2-0.1-0.3c0.1-0.1,0.2-0.2,0.3-0.1
			l16.23,7.02c4.11,1.81,8.62,2.51,13.13,2.11l37.18-3.31c0.2,0,0.3,0.1,0.3,0.2s-0.1,0.3-0.2,0.3l-37.18,3.31
			C132.61,41.01,131.81,41.01,131.01,41.01L131.01,41.01L131.01,41.01L131.01,41.01z"/>
		<path class="st1" d="M157.47,44.92c-0.1,0-0.2-0.1-0.2-0.2s0.1-0.3,0.2-0.3l1.9-0.2c0.1,0,0.3,0.1,0.3,0.2s-0.1,0.3-0.2,0.3
			L157.47,44.92C157.57,44.92,157.47,44.92,157.47,44.92L157.47,44.92L157.47,44.92L157.47,44.92z"/>
		<path class="st1" d="M150.85,45.53c-0.1,0-0.2-0.1-0.2-0.2s0.1-0.3,0.2-0.3l5.01-0.4c0.1,0,0.3,0.1,0.3,0.2s-0.1,0.3-0.2,0.3
			L150.85,45.53C150.95,45.53,150.95,45.53,150.85,45.53L150.85,45.53L150.85,45.53L150.85,45.53z"/>
		<path class="st1" d="M131.01,47.23c-3.71,0-7.52-0.8-11.02-2.21L103.75,38c-0.1-0.1-0.2-0.2-0.1-0.3c0-0.2,0.2-0.2,0.3-0.2
			l16.23,7.02c4.11,1.81,8.62,2.51,13.13,2.11l13.83-1.2c0.2,0,0.3,0.1,0.3,0.2c0,0.1-0.1,0.3-0.2,0.3l-13.83,1.2
			C132.61,47.23,131.81,47.23,131.01,47.23L131.01,47.23L131.01,47.23L131.01,47.23z"/>
		<path class="st1" d="M153.66,50.94c-0.1,0-0.2-0.1-0.2-0.2s0.1-0.3,0.2-0.3l10.22-0.9c0.2,0,0.3,0.1,0.3,0.2
			c0,0.1-0.1,0.3-0.2,0.3L153.66,50.94L153.66,50.94L153.66,50.94L153.66,50.94L153.66,50.94z"/>
		<path class="st1" d="M131.01,52.85c-3.71,0-7.52-0.8-11.02-2.21l-16.23-7.02c-0.1-0.1-0.2-0.2-0.1-0.3c0.1-0.1,0.2-0.2,0.3-0.1
			l16.23,7.02c4.11,1.81,8.62,2.51,13.13,2.11l18.24-1.6c0.2,0,0.3,0.1,0.3,0.2c0,0.1-0.1,0.3-0.2,0.3l-18.24,1.6
			C132.61,52.85,131.81,52.85,131.01,52.85L131.01,52.85L131.01,52.85L131.01,52.85z"/>
		<path class="st1" d="M131.01,58.26c-3.71,0-7.52-0.8-11.02-2.21l-16.23-7.02c-0.1-0.1-0.2-0.2-0.1-0.3c0-0.2,0.2-0.2,0.3-0.2
			l16.23,7.02c4.11,1.81,8.62,2.51,13.13,2.11l11.83-1.1c0.2,0,0.3,0.1,0.3,0.2s-0.1,0.3-0.2,0.3l-11.82,1.1
			C132.61,58.26,131.81,58.26,131.01,58.26L131.01,58.26L131.01,58.26L131.01,58.26z"/>
		<path class="st1" d="M137.43,59.67c-0.1,0-0.2-0.1-0.2-0.2s0.1-0.3,0.2-0.3l16.23-1.4c0.2,0,0.3,0.1,0.3,0.2s-0.1,0.3-0.2,0.3
			L137.43,59.67L137.43,59.67L137.43,59.67L137.43,59.67L137.43,59.67z"/>
		<path class="st1" d="M158.97,76.32c-1.6,0-3.21-0.3-4.71-0.9l-15.73-6.12c-0.1-0.1-0.2-0.2-0.1-0.3c0-0.1,0.2-0.2,0.3-0.1
			l15.73,6.12c2.3,0.9,4.71,1.1,7.12,0.6l31.57-6.72c0.1,0,0.3,0.1,0.3,0.2c0,0.1-0.1,0.3-0.2,0.3l-31.57,6.72
			C160.77,76.22,159.87,76.32,158.97,76.32L158.97,76.32L158.97,76.32L158.97,76.32z"/>
		<path class="st1" d="M184.62,76.32c-0.1,0-0.2-0.1-0.2-0.2s0.1-0.3,0.2-0.3l2.51-0.5c0.1,0,0.3,0.1,0.3,0.2s-0.1,0.3-0.2,0.3
			L184.62,76.32L184.62,76.32L184.62,76.32L184.62,76.32L184.62,76.32z"/>
		<path class="st1" d="M158.97,81.43c-1.6,0-3.21-0.3-4.71-0.9l-15.73-6.12c-0.1-0.1-0.2-0.2-0.1-0.3c0.1-0.1,0.2-0.2,0.3-0.1
			l15.73,6.12c2.3,0.9,4.71,1.1,7.12,0.6l21.04-4.51c0.1,0,0.3,0.1,0.3,0.2c0,0.1-0.1,0.3-0.2,0.3l-21.04,4.51
			C160.77,81.33,159.87,81.43,158.97,81.43L158.97,81.43L158.97,81.43L158.97,81.43z"/>
		<path class="st1" d="M158.97,86.95c-1.6,0-3.21-0.3-4.71-0.9l-15.73-6.12c-0.1-0.1-0.2-0.2-0.1-0.3c0.1-0.1,0.2-0.2,0.3-0.1
			l15.73,6.12c2.3,0.9,4.71,1.1,7.12,0.6l16.64-3.51c0.1,0,0.3,0.1,0.3,0.2s-0.1,0.3-0.2,0.3l-16.64,3.51
			C160.77,86.85,159.87,86.95,158.97,86.95L158.97,86.95L158.97,86.95L158.97,86.95z"/>
		<path class="st1" d="M174,85.64c-0.1,0-0.2-0.1-0.2-0.2s0.1-0.3,0.2-0.3l16.43-3.51c0.1,0,0.3,0.1,0.3,0.2s-0.1,0.3-0.2,0.3
			L174,85.64L174,85.64L174,85.64L174,85.64L174,85.64z"/>
		<path class="st1" d="M158.97,92.87c-1.6,0-3.21-0.3-4.71-0.9l-15.73-6.12c-0.1-0.1-0.2-0.2-0.1-0.3c0.1-0.1,0.2-0.2,0.3-0.1
			l15.73,6.12c2.3,0.9,4.71,1.1,7.12,0.6l19.44-4.11c0.1,0,0.3,0.1,0.3,0.2s-0.1,0.3-0.2,0.3l-19.44,4.11
			C160.77,92.87,159.87,92.87,158.97,92.87L158.97,92.87L158.97,92.87L158.97,92.87z"/>
		<path class="st1" d="M179.81,94.37c-0.1,0-0.2-0.1-0.2-0.2c0-0.1,0.1-0.3,0.2-0.3l6.11-1.3c0.1,0,0.3,0.1,0.3,0.2
			s-0.1,0.3-0.2,0.3L179.81,94.37L179.81,94.37L179.81,94.37L179.81,94.37L179.81,94.37z"/>
		<path class="st1" d="M177.51,94.77c-0.1,0-0.2-0.1-0.2-0.2s0.1-0.3,0.2-0.3l1.3-0.3c0.1,0,0.3,0.1,0.3,0.2c0,0.1-0.1,0.3-0.2,0.3
			L177.51,94.77C177.61,94.77,177.61,94.77,177.51,94.77L177.51,94.77L177.51,94.77L177.51,94.77z"/>
		<path class="st1" d="M158.97,98.48c-1.6,0-3.21-0.3-4.71-0.9l-15.73-6.12c-0.1-0.1-0.2-0.2-0.1-0.3c0.1-0.1,0.2-0.2,0.3-0.1
			l15.73,6.12c2.3,0.9,4.71,1.1,7.12,0.6l13.73-2.91c0.1,0,0.3,0.1,0.3,0.2s-0.1,0.3-0.2,0.3l-13.73,2.91
			C160.77,98.38,159.87,98.48,158.97,98.48L158.97,98.48L158.97,98.48L158.97,98.48z"/>
		<path class="st1" d="M211.68,223.05c-0.1,0-0.2-0.1-0.2-0.2v-11.03l-5.71-1.71l12.63-4.01c0.1,0,0.3,0,0.3,0.2
			c0,0.1,0,0.3-0.2,0.3l-11.12,3.51l4.51,1.4v11.33C211.88,222.95,211.78,223.05,211.68,223.05L211.68,223.05L211.68,223.05
			L211.68,223.05z"/>
		<path class="st1" d="M186.13,225.15c-0.1,0-0.2-0.1-0.2-0.2v-9.03l5.51,1.91l20.14-6.42c0.1,0,0.3,0,0.3,0.2c0,0.1,0,0.3-0.2,0.3
			l-20.24,6.42l-5.01-1.81v8.22C186.33,225.05,186.23,225.15,186.13,225.15L186.13,225.15L186.13,225.15L186.13,225.15z"/>
		<path class="st1" d="M191.44,224.65c-0.1,0-0.2-0.1-0.2-0.2v-6.22c0-0.1,0.1-0.2,0.2-0.2c0.1,0,0.2,0.1,0.2,0.2v6.22
			C191.74,224.55,191.64,224.65,191.44,224.65L191.44,224.65L191.44,224.65L191.44,224.65z"/>
		<path class="st1" d="M186.13,216.53c-0.1,0-0.2-0.1-0.2-0.2s0-0.3,0.2-0.3l8.22-2.91c0.8-0.3,1.3-1,1.2-1.81l-0.4-13.44
			c0-0.1,0.1-0.3,0.2-0.3c0.2,0,0.3,0.1,0.3,0.2l0.4,13.44c0,1-0.6,1.91-1.6,2.31L186.13,216.53L186.13,216.53L186.13,216.53
			L186.13,216.53L186.13,216.53z"/>
		<path class="st1" d="M118.38,56.96C118.28,56.96,118.28,56.96,118.38,56.96l-1.4-0.6c-0.2-0.1-0.2-0.2-0.2-0.3
			c0.1-0.1,0.2-0.2,0.3-0.1l1.3,0.6c0.1,0.1,0.2,0.2,0.1,0.3C118.59,56.86,118.49,56.96,118.38,56.96L118.38,56.96L118.38,56.96
			L118.38,56.96z"/>
		<path class="st1" d="M115.88,55.86C115.88,55.86,115.78,55.86,115.88,55.86l-8.12-3.41c-0.1-0.1-0.2-0.2-0.1-0.3
			c0.1-0.1,0.2-0.2,0.3-0.1l8.02,3.41c0.1,0.1,0.2,0.2,0.1,0.3C116.08,55.86,115.98,55.86,115.88,55.86L115.88,55.86L115.88,55.86
			L115.88,55.86z"/>
		<path class="st1" d="M137.32,182.63c-1.6,0-3.21-0.3-4.81-0.9l-29.36-11.23c-0.1,0-0.2-0.2-0.1-0.3c0-0.1,0.2-0.2,0.3-0.1
			l29.36,11.23c2.41,0.9,4.91,1.1,7.52,0.5c0.1,0,0.3,0.1,0.3,0.2s-0.1,0.3-0.2,0.3C139.33,182.43,138.33,182.63,137.32,182.63
			L137.32,182.63L137.32,182.63L137.32,182.63z"/>
		<path class="st1" d="M137.32,166.38c-1.6,0-3.21-0.3-4.81-0.9l-19.84-7.52c-0.1,0-0.2-0.2-0.1-0.3c0-0.1,0.2-0.2,0.3-0.1
			l19.84,7.52c2.41,0.9,4.91,1.1,7.52,0.5c0.1,0,0.3,0.1,0.3,0.2s-0.1,0.3-0.2,0.3C139.33,166.28,138.33,166.38,137.32,166.38
			L137.32,166.38L137.32,166.38L137.32,166.38z"/>
		<path class="st1" d="M111.47,157.46L111.47,157.46l-1.2-0.5c-0.1,0-0.2-0.2-0.1-0.3c0-0.1,0.2-0.2,0.3-0.1l1.1,0.4
			c0.1,0,0.2,0.2,0.1,0.3C111.67,157.35,111.57,157.46,111.47,157.46L111.47,157.46L111.47,157.46L111.47,157.46z"/>
		<path class="st1" d="M137.32,177.01c-1.6,0-3.21-0.3-4.81-0.9l-18.14-6.82c-0.1,0-0.2-0.2-0.1-0.3c0-0.1,0.2-0.2,0.3-0.1
			l18.14,6.82c2.41,0.9,4.91,1.1,7.52,0.5c0.1,0,0.3,0.1,0.3,0.2s-0.1,0.3-0.2,0.3C139.33,176.91,138.33,177.01,137.32,177.01
			L137.32,177.01L137.32,177.01L137.32,177.01z"/>
		<path class="st1" d="M137.32,172.1c-1.6,0-3.21-0.3-4.81-0.9l-17.74-6.72c-0.1,0-0.2-0.2-0.1-0.3c0-0.1,0.2-0.2,0.3-0.1
			l17.74,6.72c2.41,0.9,4.91,1.1,7.52,0.5c0.1,0,0.3,0.1,0.3,0.2s-0.1,0.3-0.2,0.3C139.33,172,138.33,172.1,137.32,172.1
			L137.32,172.1L137.32,172.1L137.32,172.1z"/>
		<path class="st1" d="M129.11,168.69L129.11,168.69l-1.6-0.6c-0.1,0-0.2-0.2-0.1-0.3c0-0.1,0.2-0.2,0.3-0.1l1.5,0.6
			c0.1,0,0.2,0.2,0.1,0.3C129.31,168.69,129.21,168.69,129.11,168.69L129.11,168.69L129.11,168.69L129.11,168.69z"/>
		<path class="st1" d="M125.6,167.38L125.6,167.38l-14.33-5.42c-0.1,0-0.2-0.2-0.1-0.3c0-0.1,0.2-0.2,0.3-0.1l14.23,5.32
			c0.1,0,0.2,0.2,0.1,0.3C125.8,167.38,125.7,167.38,125.6,167.38L125.6,167.38L125.6,167.38L125.6,167.38z"/>
		<path class="st1" d="M101.05,135.49c-0.1,0-0.2-0.1-0.2-0.2v-1.1c0-0.1,0.1-0.2,0.2-0.2c0.1,0,0.2,0.1,0.2,0.2v1.1
			C101.25,135.39,101.15,135.49,101.05,135.49L101.05,135.49L101.05,135.49L101.05,135.49z"/>
		<path class="st1" d="M101.05,133.38c-0.1,0-0.2-0.1-0.2-0.2v-0.5c0-0.1,0.1-0.2,0.2-0.2c0.1,0,0.2,0.1,0.2,0.2v0.5
			C101.25,133.28,101.15,133.38,101.05,133.38L101.05,133.38L101.05,133.38L101.05,133.38z"/>
		<path class="st1" d="M101.05,132.18c-0.1,0-0.2-0.1-0.2-0.2V94.77c0-0.1,0.1-0.2,0.2-0.2c0.1,0,0.2,0.1,0.2,0.2v37.21
			C101.25,132.08,101.15,132.18,101.05,132.18L101.05,132.18L101.05,132.18L101.05,132.18z"/>
		<path class="st1" d="M101.05,91.46c-0.1,0-0.2-0.1-0.2-0.2v-3.61c0-0.1,0.1-0.2,0.2-0.2c0.1,0,0.2,0.1,0.2,0.2v3.61
			C101.25,91.36,101.15,91.46,101.05,91.46L101.05,91.46L101.05,91.46L101.05,91.46z"/>
		<path class="st1" d="M218.4,219.54c-0.2,0-0.4-0.2-0.4-0.4V206.1l-22.85-7.32v-0.3l-2.2-132.79c0-1.71-1-3.31-2.51-4.11
			l-6.41-3.41c-1.1-0.6-2.3-0.8-3.51-0.7l-10.22,0.7V33.29c0-2.41-1.2-4.61-3.21-6.02l-10.12-6.62c-1.7-1.1-3.71-1.7-5.81-1.6
			l-42.99,1.3c-2,0.1-3.61,1.71-3.61,3.71l-0.9,154.96c0,0.2-0.2,0.4-0.4,0.4l0,0c-0.2,0-0.4-0.2-0.4-0.4l0.9-154.96
			c0-2.41,1.9-4.41,4.41-4.51l42.99-1.3c2.2-0.1,4.41,0.5,6.21,1.71l10.12,6.62c2.2,1.5,3.61,3.91,3.61,6.62v23.97l9.32-0.8
			c1.3-0.1,2.71,0.2,3.91,0.8l6.41,3.41c1.8,0.9,2.91,2.81,2.91,4.81l2.3,132.69l22.85,7.32v13.54
			C218.8,219.34,218.6,219.54,218.4,219.54L218.4,219.54L218.4,219.54L218.4,219.54z"/>
		<path class="st1" d="M141.03,196.27c-0.2,0-0.4-0.2-0.4-0.4l-2.1-127.07c0-2.01,1.5-3.71,3.51-3.81l28.16-2.31v-4.81
			c0-0.2,0.2-0.4,0.4-0.4s0.4,0.2,0.4,0.4v5.42l-28.96,2.41c-1.6,0.1-2.81,1.5-2.81,3.11l2.1,127.07
			C141.33,196.07,141.23,196.17,141.03,196.27L141.03,196.27L141.03,196.27L141.03,196.27L141.03,196.27z"/>
	</g>
</g>
<g>
	<path class="st0" d="M164.37,227.39c0-0.02,0-0.03,0-0.04l0.26-27.96l-16.13-5.82l-11.83,3.01v-5.32c0-2.21-1.5-4.11-3.61-4.71
		l-67.94-19.56c-4.11-1.1-8.32-1.1-12.33,0.1l-28.96,8.53c-1.5,0.42-2.58,1.6-2.9,3.09c-0.19,0.48-0.31,0.99-0.31,1.53v16.55
		c0,1.56,0.95,3.02,2.48,3.65c-0.92,0.56-1.62,1.42-1.98,2.41c-0.32,0.62-0.49,1.32-0.49,2.06v20.23c-0.06,0.04-0.1,0.08-0.1,0.13
		c0,0.06,0.04,0.17,0.1,0.23v14.11l4.81,1.5v4.11l85.78,24.67l52.51-25.98c0.03,0,0.05-0.02,0.08-0.04
		c0.06-0.04,0.11-0.09,0.11-0.16l0-0.04l0.11-0.06c0.2-0.1,0.3-0.3,0.2-0.5c-0.01-0.02-0.02-0.03-0.03-0.04
		c0-0.02,0.01-0.04,0.01-0.06L164.37,227.39z M137.29,197.12l-1.02,0.26v0L137.29,197.12z M135.19,188.86
		c-0.61-0.75-1.43-1.33-2.42-1.61l-32.19-9.3l32.29,9.2C133.86,187.43,134.66,188.05,135.19,188.86z M21.63,198.56
		c0.47,0.63,1.13,1.14,1.9,1.43l0.07,0.07l-0.27-0.07c-0.02,0-0.05,0.01-0.08,0.02C22.55,199.7,22,199.19,21.63,198.56z
		 M21.13,239.3v-0.11l4.51,1.41v0.11L21.13,239.3z M25.94,244.92v-0.11l85.35,24.55l-0.07,0.04L25.94,244.92z"/>
	<g>
		<path class="st1" d="M111.22,269.89L111.22,269.89l-85.78-24.67v-4.11l-4.81-1.5v-34.7c0-1.71,0.9-3.21,2.41-4.01l0.6-0.3
			l-0.4-0.1c-1.6-0.6-2.61-2.11-2.61-3.71v-16.55c0-1.81,1.2-3.41,2.91-3.91l28.96-8.63c3.91-1.2,8.12-1.2,12.23-0.1l68.04,19.66
			c2.1,0.6,3.51,2.51,3.51,4.61v5.52l12.03-3.11l16.03,5.82l-0.41,43.63c0,0.1-0.1,0.2-0.2,0.2c-0.1,0-0.2-0.1-0.2-0.2l0.41-43.23
			l-15.53-5.62l-12.43,3.21v-6.12c0-1.91-1.3-3.61-3.11-4.11l-68.04-19.66c-3.91-1.1-8.02-1.1-11.93,0.1l-29.26,8.53
			c-1.5,0.5-2.51,1.81-2.51,3.41v16.55c0,1.4,0.9,2.81,2.3,3.31l1.5,0.5l-1.6,0.8c-1.3,0.7-2.2,2.11-2.2,3.61v34.3l4.81,1.5v4.11
			l85.28,24.47l52.31-25.88c0.1-0.1,0.3,0,0.3,0.1c0.1,0.1,0,0.3-0.1,0.3L111.22,269.89L111.22,269.89L111.22,269.89L111.22,269.89
			L111.22,269.89z"/>
		<path class="st1" d="M111.22,263.07c-0.1,0-0.2-0.1-0.2-0.2v-13.44l53.01-22.27c0.1-0.1,0.3,0,0.3,0.1c0.1,0.1,0,0.3-0.1,0.3
			l-52.71,22.06v13.14C111.52,262.97,111.42,263.07,111.22,263.07L111.22,263.07L111.22,263.07L111.22,263.07z"/>
		<path class="st1" d="M111.22,249.73L111.22,249.73l-90.49-24.17c-0.1,0-0.2-0.2-0.2-0.3s0.2-0.2,0.3-0.2l90.39,24.17
			c0.1,0,0.2,0.2,0.2,0.3C111.52,249.73,111.42,249.73,111.22,249.73L111.22,249.73L111.22,249.73L111.22,249.73z"/>
		<path class="st1" d="M160.42,229.17c-0.1,0-0.2-0.1-0.2-0.2v-21.56l-43.49,18.05c-3.61,1.4-7.42,1.71-11.32,0.8l-80.27-19.96
			c-1.1-0.3-2-1-2.41-2.11c-0.4-1-0.3-2.21,0.3-3.11c0.1-0.1,0.2-0.2,0.3-0.1c0.1,0.1,0.2,0.2,0.1,0.3c-0.5,0.8-0.6,1.81-0.2,2.71
			c0.4,0.9,1.1,1.6,2.1,1.81l80.27,19.96c3.61,0.9,7.42,0.6,10.92-0.8l44.19-18.35v22.27C160.72,228.97,160.62,229.17,160.42,229.17
			L160.42,229.17L160.42,229.17L160.42,229.17z"/>
		<path class="st1" d="M98.89,226.26L98.89,226.26l-2.3-0.5c-0.1,0-0.2-0.2-0.2-0.3c0-0.1,0.2-0.2,0.3-0.2l2.2,0.5
			c0.1,0,0.2,0.2,0.2,0.3S98.99,226.26,98.89,226.26L98.89,226.26L98.89,226.26L98.89,226.26z"/>
		<path class="st1" d="M95.79,225.46L95.79,225.46l-0.7-0.2c-0.1,0-0.2-0.2-0.2-0.3c0-0.1,0.2-0.2,0.3-0.2l0.7,0.2
			c0.1,0,0.2,0.2,0.2,0.3C95.99,225.36,95.89,225.46,95.79,225.46L95.79,225.46L95.79,225.46L95.79,225.46z"/>
		<path class="st1" d="M94.38,225.06L94.38,225.06l-20.84-5.11c-0.1,0-0.2-0.2-0.2-0.3c0-0.1,0.2-0.2,0.3-0.2l20.74,5.11
			c0.1,0,0.2,0.2,0.2,0.3C94.58,225.06,94.48,225.06,94.38,225.06L94.38,225.06L94.38,225.06L94.38,225.06z"/>
		<path class="st1" d="M107.81,220.95c-1.4,0-2.71-0.2-4.01-0.5l-54.42-13.54c-0.1,0-0.2-0.2-0.2-0.3c0-0.1,0.2-0.2,0.3-0.2
			l54.42,13.54c3.01,0.8,6.11,0.6,9.02-0.3l19.14-6.42c2.2-0.7,3.71-2.81,3.71-5.22v-10.23c0-0.1,0.1-0.2,0.2-0.2
			c0.1,0,0.2,0.1,0.2,0.2v10.23c0,2.61-1.6,4.81-4.11,5.72l-19.14,6.42C111.42,220.65,109.52,220.95,107.81,220.95L107.81,220.95
			L107.81,220.95L107.81,220.95z"/>
		<path class="st1" d="M47.18,206.41C47.18,206.41,47.08,206.41,47.18,206.41l-1.5-0.3c-0.1,0-0.2-0.2-0.2-0.3s0.2-0.2,0.3-0.2
			l1.4,0.3c0.1,0,0.2,0.2,0.2,0.3C47.38,206.31,47.28,206.41,47.18,206.41L47.18,206.41L47.18,206.41L47.18,206.41z"/>
		<path class="st1" d="M43.58,205.5L43.58,205.5l-20.34-5.01c-0.1,0-0.2-0.2-0.2-0.3s0.2-0.2,0.3-0.2L43.58,205
			c0.1,0,0.2,0.2,0.2,0.3S43.68,205.5,43.58,205.5L43.58,205.5L43.58,205.5L43.58,205.5z"/>
		<path class="st1" d="M108.21,199.99c-1.1,0-2.1-0.1-3.21-0.4l-79.77-18.15c-1.1-0.2-1.9-1-2.3-2.01c-0.4-1-0.2-2.21,0.4-3.01
			c0.1-0.1,0.2-0.1,0.3,0c0.1,0.1,0.1,0.2,0,0.3c-0.6,0.7-0.7,1.71-0.4,2.61s1,1.5,1.9,1.71l79.77,18.15c2.61,0.6,5.31,0.4,7.82-0.5
			l18.74-6.92c0.8-0.3,1.4-1,1.5-1.81c0.2-0.8-0.1-1.7-0.7-2.31c-0.1-0.1-0.1-0.3,0-0.4c0.1-0.1,0.3-0.1,0.4,0
			c0.7,0.7,1,1.7,0.8,2.71c-0.2,1-0.9,1.81-1.9,2.11l-18.74,6.92C111.62,199.69,109.82,199.99,108.21,199.99L108.21,199.99
			L108.21,199.99L108.21,199.99z"/>
		<path class="st1" d="M107.81,204.5c-1.4,0-2.81-0.2-4.21-0.5l-82.78-20.56c-0.1,0-0.2-0.2-0.2-0.3c0-0.1,0.2-0.2,0.3-0.2
			l82.78,20.56c3.51,0.9,7.12,0.6,10.52-0.7l11.62-4.71c0.1-0.1,0.3,0,0.3,0.1s0,0.3-0.1,0.3l-11.62,4.71
			C112.42,204.1,110.12,204.5,107.81,204.5L107.81,204.5L107.81,204.5L107.81,204.5z"/>
		<path class="st1" d="M160.42,207.21L160.42,207.21l-6.71-2.61l10.22-4.51c0.1-0.1,0.3,0,0.3,0.1c0.1,0.1,0,0.3-0.1,0.3l-9.02,4.01
			l5.51,2.21c0.1,0.1,0.2,0.2,0.1,0.3C160.62,207.21,160.52,207.21,160.42,207.21L160.42,207.21L160.42,207.21L160.42,207.21z"/>
		<path class="st1" d="M133.67,218.54c-0.1,0-0.2-0.1-0.2-0.2v-5.72c0-0.1,0.1-0.2,0.2-0.2c0.1,0,0.2,0.1,0.2,0.2v5.52
			C133.87,218.44,133.77,218.54,133.67,218.54L133.67,218.54L133.67,218.54L133.67,218.54z"/>
		<path class="st1" d="M109.82,243.92c-1.5,0-3.11-0.2-4.61-0.6l-81.07-21.46c-2.1-0.6-3.51-2.51-3.51-4.61c0-0.1,0.1-0.2,0.2-0.2
			s0.2,0.1,0.2,0.2c0,1.91,1.3,3.61,3.21,4.11l81.17,21.56c3.71,1,7.72,0.7,11.42-0.8l43.59-18.35c0.1-0.1,0.3,0,0.3,0.1
			c0.1,0.1,0,0.3-0.1,0.3l-43.59,18.35C114.73,243.51,112.32,243.92,109.82,243.92L109.82,243.92L109.82,243.92L109.82,243.92z"/>
		<path class="st1" d="M145.09,224.46c-0.1,0-0.2-0.1-0.2-0.2c-0.1-0.1,0-0.3,0.1-0.3l3.81-1.6c0.1-0.1,0.3,0,0.3,0.1
			c0.1,0.1,0,0.3-0.1,0.3L145.09,224.46L145.09,224.46L145.09,224.46L145.09,224.46L145.09,224.46z"/>
		<path class="st1" d="M109.82,237.7c-1.5,0-3.11-0.2-4.61-0.6l-81.07-21.46c-2.1-0.6-3.51-2.51-3.51-4.61c0-0.1,0.1-0.2,0.2-0.2
			s0.2,0.1,0.2,0.2c0,1.91,1.3,3.61,3.21,4.11l81.07,21.46c3.71,1,7.72,0.7,11.42-0.8l25.45-10.73c0.1-0.1,0.3,0,0.3,0.1
			c0.1,0.1,0,0.3-0.1,0.3l-25.45,10.73C114.73,237.3,112.32,237.7,109.82,237.7L109.82,237.7L109.82,237.7L109.82,237.7z"/>
		<path class="st1" d="M85.67,233.59L85.67,233.59l-27.86-7.42c-0.1,0-0.2-0.2-0.2-0.3c0-0.1,0.2-0.2,0.3-0.2l27.86,7.42
			c0.1,0,0.2,0.2,0.2,0.3C85.87,233.59,85.77,233.59,85.67,233.59L85.67,233.59L85.67,233.59L85.67,233.59z"/>
		<path class="st1" d="M61.51,257.86L61.51,257.86l-36.68-10.63c-0.1,0-0.2-0.2-0.2-0.3c0-0.1,0.2-0.2,0.3-0.2l36.68,10.63
			c0.1,0,0.2,0.2,0.2,0.3C61.71,257.76,61.61,257.86,61.51,257.86L61.51,257.86L61.51,257.86L61.51,257.86z"/>
		<path class="st1" d="M127.15,197.98c-0.1,0-0.2-0.1-0.2-0.2c0-0.1,0-0.3,0.1-0.3l2.91-1.1c0.1,0,0.3,0,0.3,0.1s0,0.3-0.1,0.3
			L127.15,197.98C127.25,197.98,127.15,197.98,127.15,197.98L127.15,197.98L127.15,197.98L127.15,197.98z"/>
		<path class="st1" d="M111.52,269.39h-0.1l-85.78-24.67v-4.11l-4.81-1.5v-34.7c0-1.71,1-3.31,2.51-4.11l0.3-0.2l-0.1-0.1
			c-1.6-0.6-2.71-2.11-2.71-3.81v-16.55c0-1.91,1.2-3.51,3.01-4.01l28.96-8.53c4.01-1.2,8.22-1.2,12.33-0.1l67.94,19.56
			c2.1,0.6,3.61,2.51,3.61,4.71v5.32l11.83-3.01l16.13,5.82l-0.41,43.63c0,0.2-0.2,0.4-0.4,0.4c-0.2,0-0.4-0.2-0.4-0.4l0.41-43.13
			l-15.43-5.62l-12.53,3.21v-6.32c0-1.91-1.2-3.51-3.01-4.01l-67.94-19.36c-3.91-1.1-7.92-1.1-11.83,0.1l-29.06,8.52
			c-1.4,0.4-2.41,1.81-2.41,3.31v16.55c0,1.4,0.9,2.71,2.2,3.11l1.7,0.6l-1.8,1c-1.3,0.7-2.1,2.01-2.1,3.51v34.2l4.81,1.5v4.11
			l85.08,24.47l52.21-25.88c0.2-0.1,0.4,0,0.5,0.2s0,0.4-0.2,0.5L111.52,269.39L111.52,269.39L111.52,269.39L111.52,269.39
			L111.52,269.39z"/>
	</g>
</g>
<g>
	<path class="st0" d="M204.11,287.52c-29.36,0-52.61-7.02-60.53-9.83c-1.4-0.5-2.3-1.81-2.3-3.21v-30.69c0-1.81,1.1-3.31,2.81-3.91
		l39.58-14.14c3.61-1.3,7.42-1.1,11.02,0.4l4.71,2.11l25.95-11.53l21.85,6.62l9.72-5.22l6.21,1l3.01-1.81l5.41,1l6.41-3.71
		l13.33,4.41v4.61l17.04,5.42v2.11l1.8,0.9v2.41l1.6,1.2v8.73l2.2,0.8c0.9,0.6,1.4,1.1,1.4,2.11v8.73l-0.2,0.1
		c-0.3,0.2-27.96,18.15-78.57,27.88C225.25,286.72,214.33,287.52,204.11,287.52L204.11,287.52L204.11,287.52L204.11,287.52z"/>
	<g>
		<path class="st1" d="M204.11,287.52c-29.36,0-52.61-7.02-60.53-9.83c-1.4-0.5-2.3-1.81-2.3-3.21v-30.69c0-1.81,1.1-3.31,2.81-3.91
			l39.58-14.14c3.61-1.3,7.42-1.1,11.02,0.4l4.71,2.11l25.95-11.53l21.85,6.62l9.72-5.22l6.21,1l3.01-1.81l5.41,1l6.41-3.71
			l13.33,4.41v4.61l17.04,5.42v2.11l1.8,0.9v2.41l1.6,1.2v8.73l2.2,0.8c0.9,0.6,1.4,1.1,1.4,2.11v8.73l-0.2,0.1
			c-0.3,0.2-27.96,18.15-78.57,27.88C225.25,286.72,214.33,287.52,204.11,287.52L204.11,287.52L204.11,287.52L204.11,287.52z
			 M188.57,225.64c-1.6,0-3.11,0.3-4.61,0.8l-39.58,14.14c-1.4,0.5-2.3,1.81-2.3,3.21v30.79c0,1.1,0.7,2.21,1.8,2.51
			c10.72,3.71,48.9,15.14,92.8,6.72c48.3-9.23,75.76-26.18,78.17-27.58v-8.42c0-0.7-0.3-1.1-1-1.5l-2.61-1v-8.93l-1.6-1.2v-2.21
			l-1.8-0.9v-2.01l-17.04-5.42v-4.71l-12.43-4.11l-6.41,3.71l-5.41-1l-3.01,1.81l-6.21-1l-9.72,5.22l-21.85-6.62l-26.06,11.53
			l-5.01-2.31C192.48,226.04,190.58,225.64,188.57,225.64L188.57,225.64L188.57,225.64L188.57,225.64z"/>
		<path class="st1" d="M204.11,286.92c-29.36,0-52.61-7.02-60.53-9.83c-1.3-0.5-2.2-1.71-2.2-3.11v-30.79c0-1.71,1.1-3.21,2.71-3.81
			l39.58-14.14c3.51-1.3,7.42-1.1,10.92,0.4l4.81,2.21l26.06-11.53h0.1l21.75,6.62l9.72-5.22l6.21,1l3.01-1.81l5.41,1l6.41-3.71h0.1
			l13.03,4.31v4.61l17.04,5.42v2.11l1.8,0.9v2.41l1.6,1.2v8.73l2.3,0.9c0.8,0.6,1.3,1.1,1.3,2.01v8.63l-0.1,0.1
			c-0.3,0.2-27.96,18.15-78.57,27.78C225.25,286.12,214.33,286.92,204.11,286.92L204.11,286.92L204.11,286.92L204.11,286.92z
			 M188.57,225.04c-1.6,0-3.21,0.3-4.71,0.8l-39.58,14.14c-1.4,0.5-2.41,1.91-2.41,3.31v30.79c0,1.2,0.8,2.31,1.9,2.71
			c10.72,3.71,48.9,15.14,92.8,6.72c48.8-9.33,76.36-26.48,78.27-27.68v-8.32c0-0.7-0.4-1.1-1-1.6l-2.61-1v-8.83l-1.6-1.2v-2.31
			l-1.8-0.9v-2.01l-17.04-5.42v-4.61l-12.63-4.21l-6.31,3.61l-5.41-1l-3.01,1.81l-6.21-1l-9.72,5.22l-21.85-6.62l-26.06,11.53
			l-5.01-2.31C192.48,225.44,190.58,225.04,188.57,225.04L188.57,225.04L188.57,225.04L188.57,225.04z"/>
		<path class="st1" d="M201.4,251.61c-29.66,0-52.01-5.42-57.12-6.72c-0.6-0.2-1-0.5-1.4-1c-0.4-0.5-0.5-1.2-0.3-1.81
			c0.1-0.6,0.5-1.2,1.1-1.5l3.01-1.81c0.1-0.1,0.3,0,0.3,0.1c0.1,0.1,0,0.3-0.1,0.3l-3.01,1.81c-0.5,0.3-0.8,0.7-0.9,1.2
			c-0.1,0.5,0,1,0.3,1.4c0.3,0.4,0.7,0.7,1.1,0.8c6.51,1.71,41.29,10.23,83.78,5.22c46.2-5.42,79.27-20.36,79.57-20.56
			c0.1-0.1,0.3,0,0.3,0.1c0.1,0.1,0,0.3-0.1,0.3c-0.3,0.1-33.47,15.14-79.77,20.56C218.94,251.21,209.92,251.61,201.4,251.61
			L201.4,251.61L201.4,251.61L201.4,251.61z"/>
		<path class="st1" d="M201.6,257.53c-20.34,0-37.18-2.51-46.9-4.41c-0.1,0-0.2-0.2-0.2-0.3c0-0.1,0.2-0.2,0.3-0.2
			c13.73,2.71,41.59,6.62,73.56,2.91c46.2-5.42,79.27-20.36,79.57-20.56l1.9-0.7c0.1,0,0.3,0,0.3,0.1c0,0.1,0,0.3-0.1,0.3l-1.8,0.7
			c-0.3,0.1-33.37,15.14-79.77,20.56C218.94,257.13,210.02,257.53,201.6,257.53L201.6,257.53L201.6,257.53L201.6,257.53z"/>
		<path class="st1" d="M153,252.82L153,252.82c-4.51-0.9-7.62-1.7-8.62-2.01c-0.1,0-0.2-0.2-0.2-0.3s0.2-0.2,0.3-0.2
			c1,0.3,4.01,1,8.52,2.01c0.1,0,0.2,0.2,0.2,0.3S153.1,252.82,153,252.82L153,252.82L153,252.82L153,252.82z"/>
		<path class="st1" d="M201.5,262.55c-15.53,0-28.86-1.5-38.78-3.01c-0.1,0-0.2-0.1-0.2-0.3c0-0.1,0.1-0.2,0.3-0.2
			c15.23,2.41,38.88,4.61,65.44,1.5c46.2-5.42,79.27-20.36,79.57-20.56c0,0,2.71-1.4,3.31-1.91c0.1-0.1,0.3-0.1,0.3,0
			c0.1,0.1,0.1,0.3,0,0.3c-0.6,0.5-3.31,1.91-3.41,2.01c-0.3,0.2-33.47,15.24-79.77,20.56C218.94,262.15,210.02,262.55,201.5,262.55
			L201.5,262.55L201.5,262.55L201.5,262.55z"/>
		<path class="st1" d="M160.82,259.24C160.82,259.24,160.72,259.24,160.82,259.24c-0.2,0-0.3,0-0.4-0.1c-0.1,0-0.2,0-0.3-0.1
			c-0.1,0-0.2-0.1-0.2-0.3c0-0.1,0.1-0.2,0.3-0.2c0.1,0,0.2,0,0.3,0.1c0.1,0,0.3,0,0.4,0.1c0.1,0,0.2,0.1,0.2,0.3
			C161.02,259.14,160.92,259.24,160.82,259.24L160.82,259.24L160.82,259.24L160.82,259.24z"/>
		<path class="st1" d="M159.11,258.94L159.11,258.94c-2.91-0.5-5.71-1.1-8.82-1.71c-0.1,0-0.2-0.2-0.2-0.3c0-0.1,0.2-0.2,0.3-0.2
			c3.01,0.7,5.91,1.2,8.72,1.71c0.1,0,0.2,0.1,0.2,0.3S159.21,258.94,159.11,258.94L159.11,258.94L159.11,258.94L159.11,258.94z"/>
		<path class="st1" d="M201.6,268.56c-5.71,0-11.62-0.2-17.44-0.6c-0.1,0-0.2-0.1-0.2-0.3c0-0.1,0.1-0.2,0.3-0.2
			c15.03,1,29.76,0.7,44.09-0.9c46.2-5.42,79.27-20.36,79.57-20.56c0,0,2.1-0.8,3.41-1.7c0.1-0.1,0.3,0,0.3,0.1
			c0.1,0.1,0,0.3-0.1,0.3c-1.3,0.9-3.41,1.71-3.41,1.71c-0.3,0.1-33.47,15.14-79.77,20.56C219.64,268.06,210.72,268.56,201.6,268.56
			L201.6,268.56L201.6,268.56L201.6,268.56z"/>
		<path class="st1" d="M201.6,270.37c-1,0-1.9,0-2.91,0c-0.1,0-0.2-0.1-0.2-0.2s0.1-0.2,0.2-0.2l0,0c10.12,0.1,20.04-0.4,29.56-1.5
			c1.9-0.2,3.81-0.5,5.61-0.7c0.1,0,0.3,0.1,0.3,0.2c0,0.1-0.1,0.3-0.2,0.3c-1.8,0.3-3.71,0.5-5.61,0.7
			C219.64,269.87,210.72,270.37,201.6,270.37L201.6,270.37L201.6,270.37L201.6,270.37z"/>
		<path class="st1" d="M197.79,270.37L197.79,270.37l-2.3-0.1c-0.1,0-0.2-0.1-0.2-0.2s0.1-0.2,0.2-0.2l2.3,0.1
			c0.1,0,0.2,0.1,0.2,0.2C198.09,270.17,197.99,270.37,197.79,270.37L197.79,270.37L197.79,270.37L197.79,270.37z"/>
		<path class="st1" d="M193.69,270.17L193.69,270.17c-17.84-0.6-32.37-2.91-41.39-4.81c-0.1,0-0.2-0.2-0.2-0.3s0.2-0.2,0.3-0.2
			c9.02,1.91,23.55,4.21,41.29,4.81c0.1,0,0.2,0.1,0.2,0.3C193.99,270.07,193.89,270.17,193.69,270.17L193.69,270.17L193.69,270.17
			L193.69,270.17z"/>
		<path class="st1" d="M220.14,235.17c-4.61,0-9.22-1-13.53-3.01l-7.42-3.51c-0.1-0.1-0.2-0.2-0.1-0.3c0.1-0.1,0.2-0.2,0.3-0.1
			l7.42,3.51c6.11,2.91,13.13,3.71,19.84,2.31l45.9-10.13c0.5-0.1,0.7-0.5,0.8-0.9c0-0.3-0.1-0.8-0.7-1l-5.31-1.7l4.11-2.11
			c0.1-0.1,0.3,0,0.3,0.1c0.1,0.1,0,0.3-0.1,0.3l-3.01,1.5l4.11,1.3c0.6,0.2,1,0.8,1,1.4c0,0.7-0.5,1.2-1.1,1.3l-45.9,10.13
			C224.55,234.97,222.35,235.17,220.14,235.17L220.14,235.17L220.14,235.17L220.14,235.17z"/>
		<path class="st1" d="M268.34,225.44l-10.32-2.71l5.01-3.51c0.1-0.1,0.3-0.1,0.3,0.1c0.1,0.1,0.1,0.3-0.1,0.3l-4.11,2.91l8.52,2.31
			v-4.41c0-0.1,0.1-0.2,0.2-0.2s0.2,0.1,0.2,0.2v5.01H268.34L268.34,225.44L268.34,225.44L268.34,225.44z"/>
		<path class="st1" d="M258.92,226.94l-11.42-3.31c-0.1,0-0.2-0.2-0.2-0.3s0.2-0.2,0.3-0.2l10.82,3.11v-3.71c0-0.1,0.1-0.2,0.2-0.2
			c0.1,0,0.2,0.1,0.2,0.2v4.41H258.92L258.92,226.94L258.92,226.94L258.92,226.94z"/>
	</g>
</g>
<g>
	<path class="st0" d="M159.32,271.67l0.2-4.81c-0.1-1.6-0.9-3.11-2.2-4.11c-0.2-0.2-0.5-0.4-0.8-0.6l-4.51-0.9
		c-0.2-1.2-1-2.21-2.2-2.51l-20.04-6.12c-3.11-0.9-6.31-1.1-9.42-0.5l-57.12,10.83c-5.71,1.1-11.42,3.01-16.53,5.82
		c-6.71,3.41-14.93,8.42-16.03,12.24c-1,3.31,0.4,8.22,0.4,8.22s-2.2,2.41-2.2,5.42c0,0.8,0.2,3.91,0.6,7.92h-0.1l0.2,0.2
		c0.2,2.91,0.5,6.32,0.8,9.93l0,0l0,0c0.3,3.01,0.5,6.12,0.8,9.03l0,0l0,0c0.6,6.52,1,11.63,1,11.63l17.04,28.08l62.63-27.48v-7.62
		l24.35-9.83l2.61,0.9l26.96-11.13v-32.8L159.32,271.67L159.32,271.67L159.32,271.67L159.32,271.67L159.32,271.67L159.32,271.67
		L159.32,271.67z"/>
	<path class="st2" d="M28.14,328.03l-1.6-24.47C26.64,306.47,28.14,328.03,28.14,328.03L28.14,328.03L28.14,328.03L28.14,328.03
		L28.14,328.03L28.14,328.03z"/>
	<path class="st1" d="M49.09,361.93l-17.14-28.38c-0.1-1.4-3.21-35.71-3.21-38.71c0-2.71,1.7-4.91,2.1-5.42
		c-0.2-0.8-1.3-5.22-0.3-8.22c1.1-3.81,9.32-8.93,16.03-12.64c5.11-2.81,10.82-4.71,16.53-5.82l57.02-10.83
		c3.21-0.6,6.51-0.4,9.52,0.5l19.94,6.12c1.2,0.4,2.1,1.3,2.3,2.51l4.41,0.9c1.8,0.9,3.01,2.81,3.11,4.81l-0.2,4.61l6.51,2.11v33.2
		l-27.16,11.23l-2.61-0.9l-24.05,9.73v7.62l-0.1,0.1L49.09,361.93L49.09,361.93L49.09,361.93L49.09,361.93L49.09,361.93z
		 M32.35,333.45l16.94,27.88l62.13-27.28v-7.72l0.2-0.1l24.35-9.83l2.61,0.9l26.66-11.03v-32.5l-6.51-2.11l0.2-5.01
		c-0.1-1.81-1.1-3.51-2.81-4.41l-4.61-0.9v-0.2c-0.2-1.1-1-2.01-2-2.31l-19.94-6.12c-3.01-0.9-6.21-1.1-9.32-0.5l-57.02,10.83
		c-5.71,1.1-11.32,3.01-16.43,5.82c-9.42,5.22-14.93,9.43-15.73,12.34c-1,3.21,0.4,8.12,0.4,8.12v0.1l-0.1,0.2
		c0,0-2.1,2.31-2.1,5.22C29.25,297.74,32.25,331.84,32.35,333.45L32.35,333.45L32.35,333.45L32.35,333.45z"/>
	<path class="st1" d="M111.62,291.42h-0.1l-3.01-2.01c-0.1-0.1-0.1-0.2-0.1-0.3c0.1-0.1,0.2-0.1,0.3-0.1l3.01,2.01
		c0.1,0.1,0.1,0.2,0.1,0.3S111.72,291.42,111.62,291.42L111.62,291.42L111.62,291.42L111.62,291.42z"/>
	<path class="st1" d="M108.61,286.71c-0.1,0-0.2-0.1-0.2-0.2s0-0.3,0.2-0.3l22.95-6.12l7.01,3.01l24.25-7.12c0.1,0,0.3,0,0.3,0.2
		c0,0.1,0,0.3-0.2,0.3l-24.35,7.12l-7.01-3.01L108.61,286.71C108.71,286.71,108.61,286.71,108.61,286.71L108.61,286.71
		L108.61,286.71L108.61,286.71z"/>
	<path class="st1" d="M48.39,286.41L48.39,286.41c-0.1-0.1-2.61-2.51-5.01-4.91c-0.1-0.1-0.1-0.3,0-0.3c0.1,0,0.3-0.1,0.3,0
		c2.1,2.21,4.41,4.31,4.81,4.71l47.7-11.23l-7.22-2.41l43.49-10.43h0.1l7.72,1.5l11.22-2.41c0.1,0,0.3,0.1,0.3,0.2s-0.1,0.3-0.2,0.3
		l-11.32,2.41l-7.72-1.5l-41.69,9.93l7.22,2.41L48.39,286.41L48.39,286.41L48.39,286.41L48.39,286.41L48.39,286.41z"/>
	<path class="st1" d="M41.87,279.79c-0.1,0-0.1,0-0.2-0.1c-0.8-0.9-1.3-1.5-1.8-2.11c-0.1-0.1-0.1-0.3,0-0.3c0.1-0.1,0.3-0.1,0.3,0
		c0.4,0.6,1,1.2,1.8,2.11c0.1,0.1,0.1,0.3,0,0.3C41.97,279.79,41.97,279.79,41.87,279.79L41.87,279.79L41.87,279.79L41.87,279.79z"
		/>
	<path class="st1" d="M48.99,324.32l-19.84-21.36c-0.1-0.1-0.1-0.3,0-0.3c0.1-0.1,0.3-0.1,0.3,0l19.64,21.06l62.43-23.17
		c0.1,0,0.3,0,0.3,0.1s0,0.3-0.1,0.3L48.99,324.32L48.99,324.32L48.99,324.32L48.99,324.32L48.99,324.32z"/>
	<path class="st1" d="M48.99,334.55l-0.1-0.1l-18.74-21.36c-0.1-0.1-0.1-0.3,0-0.3c0.1-0.1,0.3-0.1,0.3,0l18.64,21.16l45.7-18.45
		c0.1-0.1,0.3,0,0.3,0.1c0.1,0.1,0,0.3-0.1,0.3L48.99,334.55L48.99,334.55L48.99,334.55L48.99,334.55L48.99,334.55z"/>
	<path class="st1" d="M48.99,344.48l-0.1-0.1l-17.94-22.27c-0.1-0.1-0.1-0.3,0-0.3c0.1-0.1,0.3-0.1,0.3,0l17.84,22.17l50.51-20.36
		c0.1,0,0.3,0,0.3,0.1c0.1,0.1,0,0.3-0.1,0.3L48.99,344.48L48.99,344.48L48.99,344.48L48.99,344.48L48.99,344.48z"/>
	<path class="st1" d="M96.29,315.5c-0.1,0-0.2-0.1-0.2-0.2s0-0.3,0.2-0.3l2.51-0.9c0.1,0,0.3,0,0.3,0.2c0,0.1,0,0.3-0.2,0.3
		L96.29,315.5L96.29,315.5L96.29,315.5L96.29,315.5L96.29,315.5z"/>
	<path class="st1" d="M100.7,313.99c-0.1,0-0.2-0.1-0.2-0.2s0-0.3,0.2-0.3l8.02-2.71c0.1,0,0.3,0,0.3,0.2c0,0.1,0,0.3-0.2,0.3
		L100.7,313.99L100.7,313.99L100.7,313.99L100.7,313.99L100.7,313.99z"/>
	<path class="st1" d="M92.78,318.2c-0.1,0-0.2-0.1-0.2-0.2s0-0.3,0.2-0.3l15.93-5.42c0.1,0,0.3,0,0.3,0.2c0,0.1,0,0.3-0.2,0.3
		L92.78,318.2L92.78,318.2L92.78,318.2L92.78,318.2L92.78,318.2z"/>
	<path class="st1" d="M50.09,310.98c-0.1,0-0.2-0.1-0.2-0.2s0-0.3,0.2-0.3l15.83-5.11c0.1,0,0.3,0,0.3,0.2c0,0.1,0,0.3-0.2,0.3
		L50.09,310.98C50.19,310.98,50.09,310.98,50.09,310.98L50.09,310.98L50.09,310.98L50.09,310.98z"/>
	<path class="st1" d="M46.38,297.24c-2.81,0-5.61-1.4-7.32-3.71l-7.12-10.03c-0.1-0.1-0.1-0.3,0.1-0.3c0.1-0.1,0.3-0.1,0.3,0.1
		l7.12,10.03c2,2.91,5.71,4.21,9.12,3.21l59.53-16.15l-5.81-3.21l29.56-8.12h0.1l6.71,1.81l16.23-4.81c1.5-0.3,2.41-0.9,2.51-1.6
		c0.1-0.7-0.4-1.4-1.4-1.91c-0.1-0.1-0.2-0.2-0.1-0.3c0.1-0.1,0.2-0.2,0.3-0.1c1.2,0.7,1.8,1.6,1.7,2.41c-0.2,1-1.2,1.71-2.91,2.01
		l-16.33,4.81l-6.81-1.91l-28.26,7.72l5.81,3.21l-0.6,0.2l-60.13,16.35C47.99,297.14,47.18,297.24,46.38,297.24L46.38,297.24
		L46.38,297.24L46.38,297.24z"/>
	<path class="st1" d="M46.68,309.78c-2.81,0-5.41-1.3-7.12-3.71c-1.2-1.81-2.81-3.91-4.31-5.82c-1.3-1.71-2.51-3.31-3.41-4.51
		c-0.8-1.2-1.2-2.71-0.9-4.21c0.1-0.6,0.3-1.3,0.4-1.71c0-0.1,0-0.1,0-0.2c0,0,0,0,0-0.1c0-0.1,0.2-0.2,0.3-0.1
		c0.2,0.1,0.2,0.2,0.1,0.5c-0.1,0.4-0.3,1.1-0.4,1.7c-0.2,1.3,0.1,2.71,0.8,3.81c0.8,1.2,2,2.81,3.31,4.51
		c1.5,2.01,3.11,4.01,4.31,5.92c2,2.91,5.61,4.21,9.02,3.21l12.43-3.71c0.1,0,0.3,0,0.3,0.2c0,0.1,0,0.3-0.2,0.3l-12.43,3.71
		C48.39,309.68,47.59,309.78,46.68,309.78L46.68,309.78L46.68,309.78L46.68,309.78z"/>
	<path class="st1" d="M64.12,304.76c-0.1,0-0.2-0.1-0.2-0.2c0-0.1,0-0.3,0.2-0.3l2-0.6c0.1,0,0.3,0,0.3,0.2c0,0.1,0,0.3-0.2,0.3
		L64.12,304.76L64.12,304.76L64.12,304.76L64.12,304.76L64.12,304.76z"/>
	<path class="st1" d="M68.23,303.56c-0.1,0-0.2-0.1-0.2-0.2s0-0.3,0.2-0.3l40.39-12.34c0.1,0,0.3,0,0.3,0.2c0,0.1,0,0.3-0.2,0.3
		L68.23,303.56C68.33,303.56,68.33,303.56,68.23,303.56L68.23,303.56L68.23,303.56L68.23,303.56z"/>
	<path class="st1" d="M143.59,289.72c-0.1,0-0.2-0.1-0.2-0.2c0-0.1,0-0.3,0.2-0.3l21.45-6.72c0.1,0,0.3,0,0.3,0.2
		c0,0.1,0,0.3-0.2,0.3L143.59,289.72C143.69,289.72,143.59,289.72,143.59,289.72L143.59,289.72L143.59,289.72L143.59,289.72z"/>
	<path class="st1" d="M156.52,287.01c-0.1,0-0.2-0.1-0.2-0.2c0-0.1,0-0.3,0.2-0.3l9.02-2.81c0.1,0,0.3,0,0.3,0.2
		c0,0.1,0,0.3-0.2,0.3L156.52,287.01L156.52,287.01L156.52,287.01L156.52,287.01L156.52,287.01z"/>
	<path class="st1" d="M151.71,288.62c-0.1,0-0.2-0.1-0.2-0.2c0-0.1,0-0.3,0.2-0.3l3.61-1.1c0.1,0,0.3,0,0.3,0.2c0,0.1,0,0.3-0.2,0.3
		L151.71,288.62L151.71,288.62L151.71,288.62L151.71,288.62L151.71,288.62z"/>
	<path class="st1" d="M156.32,293.63c-0.1,0-0.2-0.1-0.2-0.2s0-0.3,0.2-0.3l8.72-2.81c0.1,0,0.3,0,0.3,0.2c0,0.1,0,0.3-0.2,0.3
		L156.32,293.63C156.42,293.63,156.32,293.63,156.32,293.63L156.32,293.63L156.32,293.63L156.32,293.63z"/>
	<path class="st1" d="M156.52,294.93c-0.1,0-0.2-0.1-0.2-0.2c0-0.1,0-0.3,0.2-0.3l9.02-2.81c0.1,0,0.3,0,0.3,0.2
		c0,0.1,0,0.3-0.2,0.3L156.52,294.93L156.52,294.93L156.52,294.93L156.52,294.93L156.52,294.93z"/>
	<path class="st1" d="M151.71,296.54c-0.1,0-0.2-0.1-0.2-0.2c0-0.1,0-0.3,0.2-0.3l4.71-1.5c0.1,0,0.3,0,0.3,0.2c0,0.1,0,0.3-0.2,0.3
		L151.71,296.54L151.71,296.54L151.71,296.54L151.71,296.54L151.71,296.54z"/>
	<path class="st1" d="M108.61,291.22c-0.1,0-0.2-0.1-0.2-0.2v-10.63c0-0.1,0.1-0.2,0.2-0.2s0.2,0.1,0.2,0.2v10.63
		C108.91,291.12,108.81,291.22,108.61,291.22L108.61,291.22L108.61,291.22L108.61,291.22z"/>
	<path class="st1" d="M111.62,326.73c-0.1,0-0.2-0.1-0.2-0.2v-35.3c0-0.1,0.1-0.2,0.2-0.2c0.1,0,0.2,0.1,0.2,0.2v35.4
		C111.92,326.63,111.82,326.73,111.62,326.73L111.62,326.73L111.62,326.73L111.62,326.73z"/>
	<path class="st1" d="M115.23,294.23c-0.1,0-0.2-0.1-0.2-0.2s0-0.3,0.2-0.3l16.84-5.62h0.1l6.81,2.81c0.1,0.1,0.2,0.2,0.1,0.3
		c-0.1,0.1-0.2,0.2-0.3,0.1l-6.71-2.81L115.23,294.23C115.33,294.23,115.23,294.23,115.23,294.23L115.23,294.23L115.23,294.23
		L115.23,294.23z"/>
	<path class="st1" d="M116.33,310.28c-0.1,0-0.2-0.1-0.2-0.2s0-0.3,0.1-0.3l15.73-5.72l6.91,3.21c0.1,0.1,0.2,0.2,0.1,0.3
		c-0.1,0.1-0.2,0.2-0.3,0.1l-6.71-3.11L116.33,310.28L116.33,310.28L116.33,310.28L116.33,310.28L116.33,310.28z"/>
	<path class="st1" d="M28.95,328.13c-0.1,0-0.2-0.1-0.2-0.2c0-0.2-1.6-21.46-1.6-24.47c0-0.1,0.1-0.2,0.2-0.2s0.2,0.1,0.2,0.2
		c0,3.01,1.5,24.27,1.6,24.47C29.25,327.93,29.15,328.03,28.95,328.13L28.95,328.13L28.95,328.13L28.95,328.13L28.95,328.13z"/>
	<path class="st1" d="M140.88,272.17c-0.1,0-0.2-0.1-0.2-0.2s0-0.3,0.2-0.3l16.94-4.91c0.1,0,0.3,0,0.3,0.2c0,0.1,0,0.3-0.2,0.3
		L140.88,272.17C140.98,272.17,140.88,272.17,140.88,272.17L140.88,272.17L140.88,272.17L140.88,272.17z"/>
	<path class="st1" d="M140.88,273.77c-0.1,0-0.2-0.1-0.2-0.2s0-0.3,0.2-0.3l7.42-2.21c0.1,0,0.3,0,0.3,0.2c0,0.1,0,0.3-0.2,0.3
		L140.88,273.77C140.98,273.77,140.88,273.77,140.88,273.77L140.88,273.77L140.88,273.77L140.88,273.77z"/>
	<path class="st1" d="M56.4,292.13c-0.1,0-0.2-0.1-0.2-0.2s0-0.3,0.2-0.3l41.09-11.23c0.1,0,0.3,0,0.3,0.2c0,0.1,0,0.3-0.2,0.3
		L56.4,292.13L56.4,292.13L56.4,292.13L56.4,292.13L56.4,292.13z"/>
	<path class="st1" d="M80.15,303.56c-0.1,0-0.2-0.1-0.2-0.2s0-0.3,0.2-0.3l28.46-9.33c0.1,0,0.3,0,0.3,0.2c0,0.1,0,0.3-0.2,0.3
		L80.15,303.56C80.25,303.56,80.15,303.56,80.15,303.56L80.15,303.56L80.15,303.56L80.15,303.56z"/>
	<path class="st1" d="M81.96,313.09c-0.1,0-0.2-0.1-0.2-0.2c0-0.1,0-0.3,0.2-0.3l27.26-9.63c0.1,0,0.3,0,0.3,0.2
		c0,0.1,0,0.3-0.2,0.3L81.96,313.09C82.06,313.09,81.96,313.09,81.96,313.09L81.96,313.09L81.96,313.09L81.96,313.09z"/>
	<path class="st1" d="M49.29,362.03l-17.34-28.68c-0.1-1.5-3.21-35.91-3.21-38.91c0-2.71,1.6-4.91,2.1-5.52
		c-0.2-1-1.2-5.22-0.3-8.32c0.9-3.11,6.31-7.32,16.13-12.74c5.21-2.81,10.82-4.71,16.64-5.82l57.12-10.83
		c3.21-0.6,6.51-0.4,9.62,0.5l20.04,6.12c1.2,0.4,2.1,1.3,2.41,2.61l4.31,0.9c1.9,1,3.11,2.91,3.21,5.01l-0.2,4.51l6.51,2.11v33.5
		l-27.26,11.23l-2.61-0.9l-23.95,9.63v7.62L49.29,362.03L49.29,362.03L49.29,362.03L49.29,362.03L49.29,362.03z M32.65,333.25
		l16.94,27.78l62.13-27.28v-7.62l24.75-10.03l2.61,0.9l26.56-11.03v-32.4l-6.51-2.11l0.2-5.11c-0.1-1.81-1.1-3.41-2.71-4.31
		l-4.71-0.9v-0.2c-0.2-1.1-0.9-1.91-2-2.21l-20.04-6.12c-3.01-0.9-6.21-1.1-9.32-0.5l-57.12,10.83c-5.71,1.1-11.32,3.01-16.43,5.82
		c-9.42,5.12-14.93,9.33-15.73,12.24c-0.9,3.21,0.4,8.02,0.4,8.12l0.1,0.2l-0.1,0.1c0,0-2.1,2.31-2.1,5.11
		C29.55,297.44,32.45,331.24,32.65,333.25L32.65,333.25L32.65,333.25L32.65,333.25z"/>
</g>
</svg>
