<?xml version="1.0" encoding="utf-8"?>
<!-- Generator: Adobe Illustrator 26.5.0, SVG Export Plug-In . SVG Version: 6.00 Build 0)  -->
<svg version="1.1" id="Warstwa_1" xmlns="http://www.w3.org/2000/svg" xmlns:xlink="http://www.w3.org/1999/xlink" x="0px" y="0px"
	 viewBox="0 0 358.77 391.74" style="enable-background:new 0 0 358.77 391.74;" xml:space="preserve">
<style type="text/css">
	.st0{fill:#2670B7;}
</style>
<g>
	<g>
		<path class="st0" d="M232.21,181.91c0.1,0,0.2-0.1,0.2-0.2v-56.04l8.42,2.28c0.2,0.1,0.5,0.1,0.7,0.1c0.3,0,0.7,0,1.1-0.3
			l1.1-0.44v1.99l-1.4,0.56c-0.5,0.2-1,0.2-1.5,0.1l-6.11-1.71c-0.1,0-0.3,0.1-0.3,0.2c0,0.1,0.1,0.3,0.2,0.3l6.11,1.71
			c0.2,0.1,0.5,0.1,0.7,0.1c0.4,0,0.8-0.1,1.1-0.3l1.2-0.48v1.02l-1.4,0.56c-0.5,0.2-1,0.2-1.5,0.1l-6.51-1.81
			c-0.1,0-0.3,0.1-0.3,0.2c0,0.1,0.1,0.3,0.2,0.3l6.51,1.81c0.2,0.1,0.5,0.1,0.7,0.1c0.4,0,0.8,0,1.1-0.3l1.2-0.48v2.27l-1.3,0.52
			c-0.5,0.2-1,0.2-1.5,0.1l-7.72-2.11c-0.1,0-0.3,0.1-0.3,0.2s0.1,0.3,0.2,0.3l7.72,2.11c0.2,0.1,0.5,0.1,0.7,0.1
			c0.3,0,0.7-0.1,1.1-0.3l1.1-0.44v1.12l-1.3,0.52c-0.5,0.2-1,0.2-1.5,0.1l-5.71-1.6c-0.1,0-0.3,0.1-0.3,0.2c0,0.1,0.1,0.3,0.2,0.3
			l5.71,1.6c0.2,0.1,0.5,0.1,0.7,0.1c0.3,0,0.7-0.1,1.1-0.3l1.1-0.44v55.6c0,0.1,0.1,0.2,0.2,0.2s0.3-0.1,0.5-0.1v-79.94
			l-10.22-2.61l-2.2,0.7v72.21C232.01,181.81,232.11,181.91,232.21,181.91z M232.41,114.14l8.42,2.28c0.2,0.1,0.5,0.1,0.7,0.1
			c0.3,0,0.7,0,1.1-0.3l1.1-0.44v1.72l-1.3,0.52c-0.5,0.2-1,0.2-1.5,0.1l-8.52-2.31V114.14z M232.41,116.35l8.42,2.28
			c0.2,0.1,0.5,0.1,0.7,0.1c0.3,0,0.7-0.1,1.1-0.3l1.1-0.44v1.12l-1.3,0.52c-0.5,0.2-1,0.2-1.5,0.1l-8.52-2.31V116.35z
			 M232.41,117.95l8.42,2.28c0.2,0.1,0.5,0.1,0.7,0.1c0.3,0,0.7-0.1,1.1-0.3l1.1-0.44v1.93l-1.3,0.52c-0.5,0.2-1,0.2-1.5,0.1
			l-8.52-2.31V117.95z M232.41,120.36l8.42,2.28c0.2,0.1,0.5,0.1,0.7,0.1c0.3,0,0.7-0.1,1.1-0.3l1.1-0.44v1.12l-1.3,0.52
			c-0.5,0.2-1,0.2-1.5,0.1l-8.52-2.31V120.36z M232.41,121.96l8.42,2.28c0.2,0.1,0.5,0.1,0.7,0.1c0.3,0,0.7-0.1,1.1-0.3l1.1-0.44
			v1.73l-1.3,0.52c-0.5,0.2-1,0.2-1.5,0.1l-8.52-2.31V121.96z M243.74,115.3l-1.3,0.52c-0.5,0.2-1,0.2-1.5,0.1l-8.52-2.31v-0.98
			l8.42,2.28c0.2,0.1,0.5,0.1,0.7,0.1c0.3,0,0.7-0.1,1.1-0.3l1.1-0.44V115.3z M242.43,127.35c-0.5,0.2-1,0.2-1.5,0.1l-8.52-2.31
			v-0.98l8.42,2.28c0.2,0.1,0.5,0.1,0.7,0.1c0.3,0,0.7-0.1,1.1-0.3l1.1-0.44v1.02L242.43,127.35z M232.41,109.9l1.7-0.6l9.62,2.41
			v2.09l-1.3,0.52c-0.5,0.2-1,0.2-1.5,0.1l-8.52-2.31V109.9z"/>
		<path class="st0" d="M254.46,148.42l9.22,2.41c0.1,0,0.2-0.1,0.1-0.2c0-0.1-0.1-0.3-0.2-0.3l-9.02-2.41c-0.1,0-0.3,0.1-0.3,0.2
			C254.26,148.21,254.36,148.42,254.46,148.42z"/>
		<path class="st0" d="M260.67,152.63l-4.51-1.2c-0.1,0-0.3,0.1-0.3,0.2s0.1,0.3,0.2,0.3l4.51,1.2c0.1,0,0.2,0,0.3-0.2
			C260.87,152.83,260.77,152.63,260.67,152.63z"/>
		<path class="st0" d="M255.16,151.22l-1-0.3c-0.1,0-0.3,0.1-0.3,0.2s0.1,0.3,0.2,0.3l1,0.3c0.1,0,0.2,0,0.3-0.2
			C255.36,151.42,255.26,151.22,255.16,151.22z"/>
		<path class="st0" d="M257.06,156.14l-1.1-0.3c-0.1,0-0.3,0.1-0.3,0.2c0,0.1,0.1,0.3,0.2,0.3l1.2,0.3c0.1,0,0.2-0.1,0.2-0.2
			C257.26,156.34,257.16,156.14,257.06,156.14z"/>
		<path class="st0" d="M299.75,190.44l-1,0.3c-0.2,0-0.2,0.2-0.2,0.3c0,0.1,0.1,0.2,0.2,0.2l1.1-0.3c0.2,0,0.2-0.2,0.2-0.3
			C300.06,190.44,299.85,190.44,299.75,190.44z"/>
		<path class="st0" d="M302.96,223.94v-91.67c0-1.71-1.1-3.21-2.71-3.71l-24.55-7.42v-15.75c0-1.2-0.8-2.21-1.9-2.51l-28.56-7.92
			c-0.6-0.1-1.1-0.2-1.7-0.1l-25.55,4.01v0.4v6.69l-0.1,0.03v72.21c0,0.06,0.04,0.12,0.1,0.16v4.66l-11.22,3.41
			c-0.2,0.1-0.3,0.3-0.2,0.5c0.02,0.04,0.05,0.08,0.08,0.11c-0.17,0.02-0.18,0.2-0.18,0.29c0,0.2,0.2,0.2,0.3,0.2l11.32-3.51
			c0,0,0.01,0,0.01,0l11.53,3.72c0.01,0.1,0.1,0.19,0.19,0.19c0.06,0,0.12-0.03,0.21-0.06l19.77,6.38c0.26,0.21,0.55,0.38,0.86,0.49
			l3.11,1c0.1,0,0.2-0.1,0.2-0.1c0-0.01-0.01-0.03-0.01-0.05l16.01,5.17l-40.55,11.13c-0.2,0-0.2,0.2-0.2,0.3s0.1,0.2,0.2,0.2
			l41.39-11.33c0.02,0,0.03-0.01,0.05-0.01l9.67,3.12v9.29c-2.75,0.82-34.59,10.58-35.07,10.67c-0.2,0-0.2,0.2-0.2,0.3
			c0,0.1,0.1,0.2,0.2,0.2c0.58-0.19,31.43-9.62,35.07-10.65v6.54c0,0.1,0.1,0.2,0.2,0.2c0.1,0,0.2-0.1,0.2-0.2v-6.65
			c0.1-0.06,0.1-0.19,0.1-0.27c0-0.09-0.04-0.14-0.1-0.17v-9.35l7.11-2.12v12.64l14.33-3.96v13.38c0,0.13,0.09,0.25,0.2,0.33v0.27
			c0,0.1,0.1,0.2,0.2,0.2c0.1,0,0.2-0.1,0-0.2v-0.2C302.96,224.44,303.06,224.24,302.96,223.94z M297.35,128.86l2.51,1.4
			c0.3,0.2,0.4,0.6,0.4,0.9c-0.1,0.2-0.3,0.6-0.7,0.7c-4.21,1.1-12.83,3.51-16.94,4.61h-0.1c-1.6,0.5-3.31,0.5-4.91,0.1l-27.52-7.05
			l1.19-0.3c0.02,0.01,0.05,0.03,0.07,0.03c0.03,0,0.05-0.01,0.06-0.02l24.49-6.9c0.06,0,0.1-0.02,0.13-0.05l21.22,6.46
			C297.28,128.78,297.31,128.82,297.35,128.86z M229.61,121.68l-1.4,0.56c-0.5,0.2-1,0.2-1.5,0.1l-7.92-2.14v-1.58l7.82,2.12
			c0.2,0.1,0.5,0.1,0.7,0.1c0.4,0,0.7-0.1,1.1-0.3l1.2-0.48V121.68z M229.61,119.57l-1.4,0.56c-0.5,0.2-1,0.2-1.5,0.1l-7.92-2.14
			v-1.08l7.82,2.12c0.2,0.1,0.5,0.1,0.7,0.1c0.4,0,0.7-0.1,1.1-0.3l1.2-0.48V119.57z M229.61,117.97l-1.4,0.56
			c-0.5,0.2-1,0.2-1.5,0.1l-7.92-2.14v-1.98l7.82,2.12c0.2,0.1,0.5,0.1,0.7,0.1c0.4,0,0.7,0,1.1-0.3l1.2-0.48V117.97z
			 M229.61,115.46l-1.4,0.56c-0.5,0.2-1,0.2-1.5,0.1l-7.92-2.14V113l7.82,2.12c0.2,0.1,0.5,0.1,0.7,0.1c0.4,0,0.7-0.1,1.1-0.3
			l1.2-0.48V115.46z M229.61,113.95l-1.4,0.56c-0.5,0.2-1,0.2-1.5,0.1l-7.92-2.14v-1.58l7.82,2.12c0.2,0.1,0.5,0.1,0.7,0.1
			c0.4,0,0.7-0.1,1.1-0.3l1.2-0.48V113.95z M218.78,120.72l7.82,2.12c0.2,0.1,0.5,0.1,0.7,0.1c0.4,0,0.7-0.1,1.1-0.3l1.2-0.48v1.02
			l-1.4,0.56c-0.5,0.2-1,0.2-1.5,0.1l-7.92-2.14V120.72z M229.61,111.85l-1.4,0.56c-0.5,0.2-1,0.2-1.5,0.1l-7.92-2.14v-1.08
			l7.82,2.12c0.2,0.1,0.5,0.1,0.7,0.1c0.4,0,0.7-0.1,1.1-0.3l1.2-0.48V111.85z M218.78,122.23l7.82,2.12c0.2,0.1,0.5,0.1,0.7,0.1
			c0.4,0,0.7,0,1.1-0.3l1.2-0.48v2.13l-1.4,0.56c-0.5,0.2-1,0.2-1.5,0.1l-6.11-1.71c-0.1,0-0.3,0.1-0.3,0.2c0,0.1,0.1,0.3,0.2,0.3
			l6.11,1.71c0.2,0.1,0.5,0.1,0.7,0.1c0.4,0,0.7-0.1,1.1-0.3l1.2-0.48v1.02l-1.4,0.56c-0.5,0.2-1,0.2-1.5,0.1l-6.51-1.81
			c-0.1,0-0.3,0.1-0.3,0.2c0,0.1,0.1,0.3,0.2,0.3l6.51,1.81c0.2,0.1,0.5,0.1,0.7,0.1c0.4,0,0.7,0,1.1-0.3l1.2-0.48V130l-1.4,0.56
			c-0.5,0.2-1,0.2-1.5,0.1l-7.72-2.11c-0.05,0-0.14,0.03-0.2,0.07V122.23z M229.61,110.24l-1.4,0.56c-0.5,0.2-1,0.2-1.5,0.1
			l-7.92-2.14v-2.55l1.2-0.42l9.62,2.41V110.24z M218.78,183.52v-54.53c0.03,0.04,0.06,0.07,0.1,0.07l7.72,2.11
			c0.2,0.1,0.5,0.1,0.7,0.1c0.4,0,0.7-0.1,1.1-0.3l1.2-0.48v1.12l-1.4,0.56c-0.5,0.2-1,0.2-1.5,0.1l-5.71-1.6
			c-0.1,0-0.3,0.1-0.3,0.2c0,0.1,0.1,0.3,0.2,0.3l5.71,1.6c0.2,0.1,0.5,0.1,0.7,0.1c0.4,0,0.7-0.1,1.1-0.3l1.2-0.48v55.13
			l-11.13-3.6L218.78,183.52z M220.09,105.29l-1.3,0.42v-6.09l24.95-3.85c0.4-0.1,0.9,0,1.4,0.1l19.54,5.42c0,0.1,0.1,0.3,0.2,0.3
			l8.62,2.41c0.1,0,0.1,0.1,0.1,0.1s0,0.1-0.1,0.1l-21.24,4.11c-0.8,0.1-1.5,0.1-2.3-0.1l-28.56-7.12c-0.1,0-0.3,0.1-0.3,0.2
			c0,0.1,0.1,0.3,0.2,0.3l28.56,7.12c0.5,0.1,0.9,0.2,1.4,0.2c0.4,0,0.8,0,1.2-0.1l21.14-4.11c0.3-0.1,0.5-0.3,0.5-0.6
			c0-0.05-0.01-0.1-0.03-0.15c0.27,0.12,0.5,0.28,0.68,0.5c0.14,0.26,0.24,0.55,0.24,0.84v16.45l0.2,0.06v0.21l-23.65,6.69v-19.4
			c0-0.1-0.1-0.2-0.2-0.2c-0.1,0-0.2,0.1-0.2,0.2v19.36l-2.41,0.6v62.88c0,0.51,0.15,0.98,0.4,1.39l-18.84-6.09V107.9L220.09,105.29
			z M249.15,133.7l28.06,7.3c0.8,0.2,1.6,0.3,2.41,0.3c0.8,0,1.5-0.1,2.3-0.3l6.21-1.55v3.38l-6.41,1.58c-1.4,0.4-2.91,0.4-4.41,0
			l-28.16-7.32V133.7z M288.13,138.91l-6.41,1.58c-1.4,0.4-2.91,0.4-4.41,0l-28.16-7.32v-3.36l28.36,7.27c0.9,0.2,1.7,0.3,2.51,0.3
			c1,0,1.9-0.1,2.71-0.3h0.1c1.36-0.37,3.24-0.9,5.31-1.47V138.91z M280.51,203.68l-30.8-9.96c-0.35-0.39-0.57-0.89-0.57-1.47
			v-54.64l28.06,7.3c0.8,0.2,1.6,0.3,2.41,0.3c0.8,0,1.5-0.1,2.2-0.3l6.31-1.56v4.09l-6.41,1.58c-1.4,0.4-2.91,0.4-4.41,0
			l-24.65-6.42c-0.1,0-0.3,0.1-0.3,0.2c0,0.1,0.1,0.3,0.2,0.3l24.65,6.42c0.8,0.2,1.6,0.3,2.41,0.3c0.8,0,1.5-0.1,2.2-0.3l6.31-1.55
			v3.28l-6.41,1.58c-1.4,0.4-2.91,0.4-4.41,0l-17.54-4.61c-0.1,0-0.3,0.1-0.3,0.2s0.1,0.3,0.2,0.3l17.54,4.61
			c0.8,0.2,1.6,0.3,2.41,0.3c0.8,0,1.5-0.1,2.2-0.3l6.31-1.56v0.48l-6.41,1.58c-1.4,0.4-2.91,0.4-4.41,0l-12.23-3.21
			c-0.1,0-0.3,0.1-0.3,0.2c0,0.1,0.1,0.3,0.2,0.3l12.23,3.21c0.8,0.2,1.6,0.3,2.41,0.3c0.8,0,1.5-0.1,2.2-0.3l6.31-1.56v2.68
			l-6.41,1.58c-1.4,0.4-2.91,0.4-4.41,0l-15.83-4.11c-0.1,0-0.3,0.1-0.3,0.2s0.1,0.3,0.2,0.3l15.83,4.11c0.8,0.2,1.6,0.3,2.41,0.3
			c0.8,0,1.5-0.1,2.2-0.3l6.31-1.56v3.79l-6.41,1.58c-1.4,0.4-2.91,0.4-4.41,0l-19.14-5.01c-0.1,0-0.3,0.1-0.3,0.2
			c0,0.1,0.1,0.3,0.2,0.3l19.14,5.01c0.8,0.2,1.6,0.3,2.41,0.3c0.8,0,1.5,0,2.2-0.3l6.31-1.56v41.16L280.51,203.68z M288.43,214.01
			v-4.21v-3.61v-4.21v-0.05c0,0,0,0,0,0c0,0.02,0,0.03,0,0.05c0,0.1,0.1,0.2,0.2,0.2l8.72-2.21c0.2,0,0.2-0.2,0.2-0.3
			c0-0.2-0.2-0.2-0.3-0.2l-8.62,2.21c-0.04,0-0.07,0.01-0.1,0.03v-3.79c0.03,0.02,0.06,0.05,0.1,0.05l11.72-3.01
			c0.2,0,0.2-0.2,0.2-0.3c0-0.2-0.2-0.2-0.3-0.2l-11.62,3.01c-0.04,0-0.07,0.01-0.1,0.03v-3.68c0.03,0.02,0.06,0.05,0.1,0.05
			l8.72-2.21c0.2,0,0.2-0.2,0.2-0.3c0-0.2-0.2-0.2-0.3-0.2l-8.62,2.21c-0.04,0-0.07,0.01-0.1,0.03V135.5
			c3.95-1.09,8.47-2.33,11.22-3.03c0.5-0.2,0.9-0.6,1-1.2s-0.2-1.1-0.7-1.4l-1.02-0.57l1.22,0.37c0.79,0.23,1.42,0.75,1.82,1.41
			c0.18,0.4,0.29,0.84,0.29,1.3v65.65l-3.61,0.95c-0.2,0-0.2,0.2-0.2,0.3c0,0.1,0.1,0.2,0.2,0.2l3.61-0.93v3.81l-13.73,3.53
			c-0.2,0-0.2,0.2-0.2,0.3c0,0.1,0.1,0.2,0.2,0.2l13.73-3.51v3.08l-13.73,3.53c-0.2,0-0.2,0.2-0.2,0.3c0,0.1,0.1,0.2,0.2,0.2
			l13.73-3.51v3.64L288.43,214.01z"/>
	</g>
</g>
<g>
	<g>
		<path class="st0" d="M168.84,50.43l2-0.2c0.1,0,0.2-0.2,0.2-0.3s-0.2-0.2-0.3-0.2l-1.9,0.2c-0.1,0-0.2,0.2-0.2,0.3
			S168.74,50.43,168.84,50.43z"/>
		<path class="st0" d="M167.54,50.33c0-0.1-0.2-0.2-0.3-0.2l-5.01,0.4c-0.1,0-0.2,0.2-0.2,0.3s0.1,0.2,0.2,0.2l5.11-0.4
			C167.44,50.64,167.54,50.43,167.54,50.33z"/>
		<path class="st0" d="M164.84,56.25c0,0.1,0.1,0.2,0.2,0.2l10.32-0.9c0.1,0,0.2-0.2,0.2-0.3c0-0.1-0.1-0.2-0.3-0.2l-10.22,0.9
			C164.94,55.95,164.84,56.15,164.84,56.25z"/>
		<path class="st0" d="M148.8,65.18l16.33-1.4c0.1,0,0.2-0.2,0.2-0.3s-0.1-0.2-0.3-0.2l-16.23,1.4c-0.1,0-0.2,0.2-0.2,0.3
			S148.7,65.18,148.8,65.18z"/>
		<path class="st0" d="M198.61,81.33c0.1,0,0.2-0.2,0.2-0.3s-0.2-0.2-0.3-0.2l-2.51,0.5c-0.1,0-0.2,0.2-0.2,0.3s0.1,0.2,0.2,0.2
			L198.61,81.33z"/>
		<path class="st0" d="M185.18,90.95c0,0.1,0.1,0.2,0.2,0.2l16.53-3.51c0.1,0,0.2-0.2,0.2-0.3s-0.2-0.2-0.3-0.2l-16.43,3.51
			C185.28,90.65,185.18,90.85,185.18,90.95z"/>
		<path class="st0" d="M197.6,98.28c0-0.1-0.2-0.2-0.3-0.2l-6.11,1.3c-0.1,0-0.2,0.2-0.2,0.3c0,0.1,0.1,0.2,0.2,0.2l6.21-1.3
			C197.5,98.58,197.6,98.38,197.6,98.28z"/>
		<path class="st0" d="M190.19,99.48l-1.3,0.3c-0.1,0-0.2,0.2-0.2,0.3s0.1,0.2,0.2,0.2l1.4-0.3c0.1,0,0.2-0.2,0.2-0.3
			C190.49,99.58,190.29,99.48,190.19,99.48z"/>
		<path class="st0" d="M128.36,61.87l1.4,0.6c0.1,0,0.2-0.1,0.1-0.1c0.1-0.1,0-0.2-0.1-0.3l-1.3-0.6c-0.1-0.1-0.2,0-0.3,0.1
			C128.16,61.67,128.16,61.77,128.36,61.87z"/>
		<path class="st0" d="M127.46,61.27c0.1-0.1,0-0.2-0.1-0.3l-8.02-3.41c-0.1-0.1-0.2,0-0.3,0.1c-0.1,0.1,0,0.2,0.1,0.3l8.12,3.41
			C127.36,61.37,127.46,61.37,127.46,61.27z"/>
		<path class="st0" d="M123.05,162.76c0.1-0.1,0-0.3-0.1-0.3l-1.1-0.4c-0.1-0.1-0.3,0-0.3,0.1c-0.1,0.1,0,0.3,0.1,0.3l1.2,0.5
			C122.95,162.97,123.05,162.87,123.05,162.76z"/>
		<path class="st0" d="M138.88,173.6l1.6,0.6c0.1,0,0.2,0,0.2-0.1c0.1-0.1,0-0.3-0.1-0.3l-1.5-0.6c-0.1-0.1-0.3,0-0.3,0.1
			C138.68,173.4,138.78,173.6,138.88,173.6z"/>
		<path class="st0" d="M137.18,172.69c0.1-0.1,0-0.3-0.1-0.3l-14.23-5.32c-0.1-0.1-0.3,0-0.3,0.1c-0.1,0.1,0,0.3,0.1,0.3l14.33,5.42
			C137.08,172.89,137.18,172.89,137.18,172.69z"/>
		<path class="st0" d="M207.33,203.58l-2.3-132.69c0-2.01-1.1-3.91-2.91-4.81l-6.41-3.41c-1.2-0.6-2.61-0.9-3.91-0.8l-9.32,0.8V38.7
			c0-2.71-1.4-5.11-3.61-6.62l-10.12-6.62c-1.8-1.2-4.01-1.81-6.21-1.71l-42.99,1.3c-1.99,0.08-3.58,1.37-4.16,3.1
			c-0.22,0.53-0.35,1.1-0.35,1.72l-0.04,7.19c0,0.01,0,0.02,0,0.02l-0.74,143.47l-0.02,3.97c0,0,0,0.01,0,0.01l0,0.49
			c0,0.1,0.1,0.2,0.2,0.2s0.2-0.1,0.2-0.2l0-0.1c0.2,0,0.4-0.2,0.4-0.4l0.05-8.31l28.81,11.02c1.6,0.6,3.21,0.9,4.81,0.9
			c0.99,0,1.98-0.2,2.97-0.3l0.23,14.04c0,0.1,0.1,0.2,0.2,0.2c0.2,0,0.3-0.1,0.2-0.2l0-0.12c0.03,0.01,0.07,0.02,0.1,0.02
			c0.2-0.1,0.3-0.2,0.3-0.4l-1.72-103.99l14.65,5.7c1.5,0.6,3.11,0.9,4.71,0.9c0.9,0,1.8-0.1,2.71-0.2l13.73-2.91
			c0.1,0,0.2-0.2,0.2-0.3s-0.2-0.2-0.3-0.2l-13.73,2.91c-2.41,0.5-4.81,0.3-7.12-0.6l-14.86-5.78l-0.09-5.17l14.74,5.73
			c1.5,0.6,3.11,0.9,4.71,0.9c0.9,0,1.8,0,2.71-0.2l19.44-4.11c0.1,0,0.2-0.2,0.2-0.3s-0.2-0.2-0.3-0.2l-19.44,4.11
			c-2.41,0.5-4.81,0.3-7.12-0.6l-14.95-5.81l-0.09-5.47l14.84,5.77c1.5,0.6,3.11,0.9,4.71,0.9c0.9,0,1.8-0.1,2.71-0.2l16.64-3.51
			c0.1,0,0.2-0.2,0.2-0.3s-0.2-0.2-0.3-0.2l-16.64,3.51c-2.41,0.5-4.81,0.3-7.12-0.6l-15.05-5.85l-0.08-5.07l14.93,5.81
			c1.5,0.6,3.11,0.9,4.71,0.9c0.9,0,1.8-0.1,2.71-0.2l21.04-4.51c0.1,0,0.2-0.2,0.2-0.3c0-0.1-0.2-0.2-0.3-0.2l-21.04,4.51
			c-2.41,0.5-4.81,0.3-7.12-0.6l-15.14-5.89l-0.08-4.67l15.02,5.84c1.5,0.6,3.11,0.9,4.71,0.9c0.9,0,1.8-0.1,2.71-0.2l31.23-6.65
			l2.24,129.61v0.2l0.04,0.01l0.36,12.02c0.1,0.8-0.4,1.5-1.2,1.81l-8.17,2.89l-0.24-0.08v9.03c0,0.1,0.1,0.2,0.2,0.2
			s0.2-0.1,0.3-0.4v-8.22l4.81,1.73v6.19c0,0.1,0.1,0.2,0.2,0.2c0.2,0,0.3-0.1,0.2-0.2v-6.18l19.84-6.29v10.87
			c0,0.1,0.1,0.2,0.2,0.2s0.2-0.1,0.2-0.2v-11.33l-0.03-0.01c-0.06-0.09-0.19-0.09-0.27-0.09l-0.01,0l-4.2-1.31l10.62-3.35v12.38
			c0,0.09,0.04,0.17,0.1,0.24v0.36c0,0.1,0.1,0.2,0.2,0.2c0.17,0,0.25-0.14,0.17-0.42c0.18-0.04,0.33-0.23,0.33-0.58v-13.54
			L207.33,203.58z M178.36,35.19c-0.4,0.8-1.1,1.3-2,1.3l-34.17,0.9c-3.31,0.1-6.61-0.6-9.52-1.91l-13.03-5.92
			c-0.7-0.3-1.1-0.9-1.2-1.71c-0.1-0.8,0.3-1.5,0.9-1.91l42.99-1.2c2-0.1,4.11,0.5,5.81,1.6l10.12,6.62c0,0,0.01,0.01,0.01,0.01
			C178.66,33.66,178.73,34.46,178.36,35.19z M115.93,29.57c0-1.46,0.86-2.7,2.1-3.31c0.17-0.07,0.34-0.13,0.52-0.18
			c-0.43,0.5-0.68,1.14-0.61,1.79c0.1,0.9,0.7,1.71,1.5,2.11l13.23,6.02c2.81,1.3,6.01,2.01,9.22,2.01c0.2,0,0.3,0,0.2-0.1
			l34.17-0.9c1.1,0,2-0.6,2.51-1.6c0.32-0.64,0.35-1.28,0.18-1.89c1.68,1.4,2.63,3.38,2.63,5.61v3.64l-36.88,3.28
			c-4.51,0.4-9.02-0.3-13.13-2.11l-15.68-6.78L115.93,29.57z M151.61,187.34c-2.61,0.6-5.11,0.4-7.52-0.5l-29.01-11.1l0.7-120.91
			l15.58,6.74c3.51,1.4,7.32,2.21,11.02,2.21c0.8,0,1.6,0,2.41-0.1l11.82-1.1c0.1,0,0.2-0.2,0.2-0.3s-0.1-0.2-0.3-0.2l-11.83,1.1
			c-4.51,0.4-9.02-0.3-13.13-2.11l-15.78-6.82l0.03-4.82l15.55,6.72c3.51,1.4,7.32,2.21,11.02,2.21c0.8,0,1.6,0,2.41,0l18.24-1.6
			c0.1,0,0.2-0.2,0.2-0.3c0-0.1-0.1-0.2-0.3-0.2l-18.24,1.6c-4.51,0.4-9.02-0.3-13.13-2.11l-15.75-6.81l0.03-5.12l15.52,6.71
			c3.51,1.4,7.32,2.21,11.02,2.21c0.8,0,1.6,0,2.41-0.1l13.83-1.2c0.1,0,0.2-0.2,0.2-0.3c0-0.1-0.1-0.2-0.3-0.2l-13.83,1.2
			c-4.51,0.4-9.02-0.3-13.13-2.11l-15.71-6.8l0.03-5.62l15.48,6.69c3.51,1.4,7.32,2.21,11.02,2.21c0.8,0,1.6,0,2.41,0l36.78-3.27
			v20.12v0.3v0.2v4.31l-28.16,2.31c-1.75,0.09-3.13,1.41-3.44,3.08c-0.09,0.29-0.14,0.59-0.16,0.91c0,0.01-0.01,0.02-0.01,0.03
			c-0.06,0.06-0.04,0.13,0,0.19l0.08,4.85c-0.03,0.02-0.05,0.05-0.08,0.08c-0.1,0.1-0.01,0.19,0.09,0.29l0.08,5.1
			c-0.06,0.02-0.11,0.07-0.17,0.13c-0.1,0.1,0,0.2,0.1,0.3l0.08,0.03l0.09,5.47c-0.09-0.06-0.18,0.03-0.27,0.12
			c-0.1,0.1,0,0.2,0.1,0.3l0.18,0.07l0.09,5.17l-0.06-0.02c-0.1-0.1-0.2,0-0.3,0.1s0,0.2,0.1,0.3l0.27,0.11l1.22,74.05
			c-2.53,0.54-4.97,0.34-7.31-0.54l-19.84-7.52c-0.1-0.1-0.3,0-0.3,0.1c-0.1,0.1,0,0.3,0.1,0.3l19.84,7.52
			c1.6,0.6,3.21,0.9,4.81,0.9c0.9,0,1.8-0.09,2.71-0.26l0.09,5.19c-2.56,0.57-5.03,0.37-7.4-0.52l-17.74-6.72
			c-0.1-0.1-0.3,0-0.3,0.1c-0.1,0.1,0,0.3,0.1,0.3l17.74,6.72c1.6,0.6,3.21,0.9,4.81,0.9c0.93,0,1.87-0.1,2.8-0.27l0.07,4.39
			c-2.59,0.59-5.09,0.39-7.48-0.51l-18.14-6.82c-0.1-0.1-0.3,0-0.3,0.1c-0.1,0.1,0,0.3,0.1,0.3l18.14,6.82
			c1.6,0.6,3.21,0.9,4.81,0.9c0.96,0,1.92-0.1,2.88-0.28l0.08,5.11C151.65,187.34,151.62,187.34,151.61,187.34z M172.95,81.12
			c-2.41,0.5-4.81,0.3-7.12-0.6l-15.23-5.92l0-0.3c0-1.09,0.57-2.08,1.43-2.64c0.33-0.15,0.69-0.25,1.08-0.27l28.86-2.41v-0.17
			l0.4-0.03v-4.97l9.32-0.65c1.2-0.1,2.41,0.1,3.51,0.7l6.41,3.41c1.6,0.8,2.61,2.41,2.61,4.21l0.05,2.96L172.95,81.12z
			 M222.26,217.15l-19.44,6.2l-4.56-1.58l7.56-2.74c1-0.4,1.6-1.3,1.6-2.31l-0.35-11.76l21.76,6.94l-11.69,3.71L222.26,217.15z"/>
	</g>
</g>
<g>
	<g>
		<path class="st0" d="M57.06,211.62l1.5,0.3c0.1,0,0.2-0.1,0.2-0.2c0-0.1-0.1-0.3-0.2-0.3l-1.4-0.3c-0.1,0-0.3,0.1-0.3,0.2
			S56.96,211.62,57.06,211.62z"/>
		<path class="st0" d="M156.47,229.97l3.91-1.7c0.1,0,0.2-0.2,0.1-0.3c0-0.1-0.2-0.2-0.3-0.1l-3.81,1.6c-0.1,0-0.2,0.2-0.1,0.3
			C156.27,229.87,156.37,229.97,156.47,229.97z"/>
		<path class="st0" d="M138.53,203.49l3.01-1.2c0.1,0,0.1-0.2,0.1-0.3s-0.2-0.1-0.3-0.1l-2.91,1.1c-0.1,0-0.1,0.2-0.1,0.3
			C138.33,203.39,138.43,203.49,138.53,203.49z"/>
		<g>
			<path class="st0" d="M171.8,234.68c0.09,0,0.16-0.04,0.21-0.1l2.93-1.23l-0.05,5.09l0.8-0.29l0.05-5.26c0-0.02,0-0.03,0-0.04
				l0.26-27.96l-16.13-5.82l-11.83,3.01v-5.32c0-2.21-1.5-4.11-3.61-4.71L76.5,172.5c-4.11-1.1-8.32-1.1-12.33,0.1l-28.96,8.53
				c-1.5,0.42-2.58,1.6-2.9,3.09c-0.19,0.48-0.31,0.99-0.31,1.53v16.55c0,1.56,0.95,3.02,2.48,3.65c-0.92,0.56-1.62,1.42-1.98,2.41
				c-0.32,0.62-0.49,1.32-0.49,2.06v20.23c-0.06,0.04-0.1,0.08-0.1,0.13c0,0.06,0.04,0.17,0.1,0.23v14.11l4.81,1.5v4.11l52.14,15
				l2.49-0.47l-53.63-15.43v-4.11l-4.81-1.5v-12.9l89.39,23.88v4.2l0.5-0.09v-4.15l48.89-20.47
				C171.79,234.68,171.8,234.68,171.8,234.68z M174.94,232.87l-2.84,1.19v-4.47c0.04-0.07,0.06-0.16,0-0.23v-16.85
				c0.06-0.06,0.04-0.12,0-0.19v-0.22l-0.17,0.07l-5.44-2.18l8.71-3.88L174.94,232.87z M159.77,199.78l15.43,5.62l0,0.02
				l-15.49-5.62L159.77,199.78z M147.65,202.89l1.01-0.26L147.65,202.89L147.65,202.89z M147.55,203.54l12.23-3.16l15.03,5.44
				l-9.72,4.29l6.12,2.38l-25.96,10.78v-5.03c1.44-1.12,2.3-2.81,2.3-4.72V203.54z M34.93,182.36c0.03-0.01,0.05-0.03,0.08-0.04
				l29.26-8.53c3.91-1.2,8.02-1.2,11.93-0.1l67.47,19.49c0.58,0.6,0.87,1.48,0.67,2.27c-0.1,0.8-0.7,1.5-1.5,1.81l-18.74,6.92
				c-2.51,0.9-5.21,1.1-7.82,0.5l-79.77-18.15c-0.9-0.2-1.6-0.8-1.9-1.71C34.33,183.99,34.42,183.06,34.93,182.36z M33.01,204.07
				c0.47,0.63,1.13,1.14,1.9,1.43l0.07,0.07l-0.27-0.07c-0.02,0-0.05,0.01-0.08,0.02C33.93,205.21,33.38,204.7,33.01,204.07z
				 M34.78,206.87l1.11-0.55l19.07,4.7c0.1,0,0.2-0.1,0.2-0.2s-0.1-0.3-0.2-0.3l-18.72-4.64l0.68-0.38l-1.7-0.6
				c-1.3-0.4-2.2-1.7-2.2-3.11v-12.64l81.97,20.36c1.4,0.3,2.81,0.5,4.21,0.5c2.3,0,4.61-0.4,6.61-1.3l11.62-4.71
				c0.1,0,0.1-0.2,0.1-0.3s-0.2-0.2-0.3-0.1l-11.62,4.71c-3.41,1.3-7.01,1.6-10.52,0.7l-82.07-20.39v-3.38
				c0-0.86,0.33-1.68,0.88-2.3c0.14-0.11,0.29-0.2,0.44-0.29c-0.28,0.71-0.31,1.56-0.02,2.29c0.4,1,1.2,1.81,2.3,2.01l79.77,18.15
				c1.1,0.3,2.1,0.4,3.21,0.4c1.6,0,3.41-0.3,4.61-1l18.74-6.92c1-0.3,1.7-1.1,1.9-2.11c0.14-0.7,0.02-1.39-0.29-1.99
				c1.36,0.5,2.38,1.69,2.69,3.11c0,0.03,0.01,0.06,0.01,0.09v6.32l0.1-0.03v0.13c-0.1,0-0.2,0.1-0.2,0.2v10.23
				c0,2.41-1.5,4.51-3.71,5.22l-19.14,6.42c-2.91,0.9-6.01,1.1-9.02,0.3l-54.42-13.54c-0.1,0-0.3,0.1-0.3,0.2c0,0.1,0.1,0.3,0.2,0.3
				l54.42,13.54c1.3,0.3,2.61,0.5,4.01,0.5c1.7,0,3.61-0.3,5.11-0.8l19.14-6.42c0.51-0.18,0.97-0.43,1.4-0.72v4.92l-16.94,7.03
				c-3.51,1.4-7.32,1.71-10.92,0.8l-80.27-19.96c-1-0.2-1.7-0.9-2.1-1.81C34.22,208.63,34.31,207.66,34.78,206.87z M171.6,234.28
				l-48.9,20.54c-0.03-0.04-0.07-0.07-0.11-0.07l-89.59-23.96v-5.12c0.61,0.79,1.47,1.41,2.51,1.7l81.07,21.46
				c1.5,0.4,3.11,0.6,4.61,0.6c2.51,0,4.91-0.4,7.22-1.4l43.19-18.19V234.28z M171.6,229.35l-43.39,18.27
				c-3.71,1.5-7.72,1.81-11.42,0.8l-81.17-21.56c-1.13-0.3-2.05-1.03-2.61-1.97v-5.45c0.61,0.79,1.47,1.4,2.51,1.7l81.07,21.46
				c1.5,0.4,3.11,0.6,4.61,0.6c2.51,0,4.91-0.4,7.12-1.5l25.45-10.73c0.1,0,0.2-0.2,0.1-0.3c0-0.1-0.2-0.2-0.3-0.1l-25.45,10.73
				c-3.71,1.5-7.72,1.81-11.42,0.8l-81.07-21.46c-1.13-0.3-2.05-1.03-2.61-1.97v-8.66c0-0.98,0.35-1.87,0.94-2.57
				c0.03-0.03,0.06-0.05,0.09-0.08c-0.25,0.76-0.23,1.61,0.06,2.35c0.4,1.1,1.3,1.81,2.41,2.11l80.27,19.96
				c3.91,0.9,7.72,0.6,11.32-0.8l16.81-6.98c0.04,0.03,0.08,0.06,0.13,0.06c0.07,0,0.14-0.05,0.17-0.18l26.38-10.95V229.35z"/>
			<polygon class="st0" points="152.65,259.55 150.05,260.84 151.28,261.22 152.65,260.54 			"/>
		</g>
	</g>
</g>
<g>
	<path class="st0" d="M326.58,252.05c-0.09-0.74-0.55-1.21-1.26-1.75l-2.2-0.86v-8.26l-0.1-0.08v-0.43l-1.5-1.13v-1.98l-0.1-0.05
		v-0.45l-1.7-0.85v-1.66l-0.1-0.03v-0.47l-16.94-5.38v-4.14l-0.1-0.03v-0.47l-13.03-4.31h-0.1l-6.41,3.71l-5.41-1l-3.01,1.81
		l-6.21-1l-9.72,5.22l-21.75-6.62h-0.1l-26.06,11.53l-4.81-2.21c-3.51-1.5-7.42-1.7-10.92-0.4l-39.58,14.14
		c-1.47,0.55-2.51,1.87-2.67,3.4c-0.08,0.32-0.13,0.66-0.13,1.01v12.33l0.8,0.24V249.3c0-0.63,0.19-1.24,0.52-1.76
		c0,0.02-0.01,0.04-0.02,0.06c-0.2,0.6-0.1,1.3,0.3,1.81c0.4,0.5,0.8,0.8,1.4,1c5.11,1.3,27.46,6.72,57.12,6.72
		c8.52,0,17.54-0.4,26.76-1.6c42.21-4.94,73.5-17.87,78.92-20.2l0.75,0.24v1.6v0.4l1.8,0.9v1.38l-1.7,0.63
		c-0.3,0.2-33.37,15.14-79.57,20.56c-31.97,3.71-59.83-0.2-73.56-2.91c-0.1,0-0.3,0.1-0.3,0.2c0,0.1,0.1,0.3,0.2,0.3
		c9.72,1.91,26.56,4.41,46.9,4.41c8.42,0,17.34-0.4,26.86-1.6c46.4-5.42,79.47-20.46,79.77-20.56l1.4-0.55v0.04v0.3l1.6,1.2v1.65
		c-0.04,0.01-0.07,0.03-0.1,0.06c-0.6,0.5-3.31,1.91-3.31,1.91c-0.3,0.2-33.37,15.14-79.57,20.56c-26.56,3.11-50.21,0.9-65.44-1.5
		c-0.2,0-0.3,0.1-0.3,0.2c0,0.2,0.1,0.3,0.2,0.3c9.92,1.5,23.25,3.01,38.78,3.01c8.52,0,17.44-0.4,26.76-1.6
		c46.3-5.32,79.47-20.36,79.77-20.56c0.09-0.09,2.36-1.27,3.21-1.86v5.83c-1.31,0.88-3.31,1.64-3.31,1.64
		c-0.3,0.2-33.37,15.14-79.57,20.56c-14.33,1.6-29.06,1.91-44.09,0.9c-0.2,0-0.3,0.1-0.3,0.2c0,0.2,0.1,0.3,0.2,0.3
		c5.81,0.4,11.72,0.6,17.44,0.6c9.12,0,18.04-0.5,26.76-1.6c46.3-5.42,79.47-20.46,79.77-20.56c0,0,1.8-0.69,3.11-1.51v0.01v0.4
		l2.61,1c0.7,0.4,1,0.8,1,1.5v7.91c-3.05,1.92-30.38,18.48-78.27,27.59c-1.38,0.34-2.75,0.65-4.11,0.94
		c1.37-0.23,2.74-0.47,4.11-0.74c48.8-9.33,76.36-26.48,78.27-27.68v0.4c-2.41,1.4-29.86,18.35-78.17,27.58
		c-5.38,1.03-10.68,1.76-15.84,2.25c3.82-0.41,7.69-1,11.63-1.82c-26.12,4.32-49.92,1.81-66.73-1.59v0.99
		c10.48,2.11,23.66,3.88,38.37,3.88c10.22,0,21.14-0.8,32.47-3.51c50.61-9.73,78.27-27.68,78.57-27.88l0.2-0.1v-8.73
		C326.72,252.52,326.66,252.28,326.58,252.05z M274.91,225.83l3.01-1.81l3.18,0.59l-2.37,1.22l0.3,0.1c0,0,0,0,0,0v4.41l-8.52-2.31
		l3.36-2.38L274.91,225.83z M279.42,226.06l4.61,1.48c0.6,0.2,0.7,0.7,0.7,1c-0.1,0.4-0.3,0.8-0.8,0.9l-4.51,1V226.06z
		 M268.7,224.83l4.53,0.73l-3.31,2.32c-0.03,0.01-0.05,0.02-0.07,0.05l-0.45,0.32l0.4,0.11v3.41l-9.12-2.62L268.7,224.83z
		 M237.13,223.43l21.85,6.62l1.06-0.57l10.17,2.95v-3.97l8.33,2.19l-8.23,1.82l-0.1-0.03v0.03h0.1l-32.26,7.12
		c-6.71,1.4-13.73,0.6-19.84-2.31l-5.96-2.82L237.13,223.43z M239.53,255.12c-42.49,5.01-77.26-3.51-83.78-5.22
		c-0.4-0.1-0.8-0.4-1.1-0.8s-0.4-0.9-0.3-1.4s0.4-0.9,0.9-1.2l0.91-0.55l39.17-13.99c1.5-0.5,3.01-0.8,4.61-0.8
		c2,0,3.91,0.4,6.11,1.5l5.01,2.31l0.62-0.27l6.3,2.98c4.31,2.01,8.92,3.01,13.53,3.01c2.2,0,4.41-0.2,6.61-0.9l40.86-9.02
		l0.43,0.11v-0.21l4.61-1.02c0.6-0.1,1.1-0.6,1.1-1.3c0-0.6-0.4-1.2-1-1.4l-4.11-1.3l1.77-0.89l1.54,0.28l6.41-3.71l12.43,4.11v4.31
		v0.4l15.67,4.98C311.41,237.91,280.69,250.29,239.53,255.12z"/>
</g>
<g>
	<g>
		<path class="st0" d="M53.05,285.2c0.1,0.1,0.1,0.1,0.2,0.1s0.1,0,0.1-0.1c0.1,0,0.1-0.2,0-0.3c-0.8-0.9-1.4-1.5-1.8-2.11
			c0-0.1-0.2-0.1-0.3,0c-0.1,0-0.1,0.2,0,0.3C51.75,283.7,52.25,284.3,53.05,285.2z"/>
		<path class="st0" d="M110.27,320.1c0.2,0,0.2-0.2,0.2-0.3c0-0.2-0.2-0.2-0.3-0.2l-2.51,0.9c-0.2,0-0.2,0.2-0.2,0.3
			c0,0.1,0.1,0.2,0.2,0.2L110.27,320.1z"/>
		<path class="st0" d="M120.09,316.29l-8.02,2.71c-0.2,0-0.2,0.2-0.2,0.3c0,0.1,0.1,0.2,0.2,0.2l8.12-2.71c0.2,0,0.2-0.2,0.2-0.3
			C120.39,316.29,120.19,316.29,120.09,316.29z"/>
		<path class="st0" d="M120.09,317.8l-15.93,5.42c-0.2,0-0.2,0.2-0.2,0.3c0,0.1,0.1,0.2,0.2,0.2l16.03-5.42c0.2,0,0.2-0.2,0.2-0.3
			C120.39,317.8,120.19,317.8,120.09,317.8z"/>
		<path class="st0" d="M77.3,310.88l-15.83,5.11c-0.2,0-0.2,0.2-0.2,0.3c0,0.1,0.1,0.2,0.2,0.2l15.93-5.11c0.2,0,0.2-0.2,0.2-0.3
			C77.6,310.88,77.4,310.88,77.3,310.88z"/>
		<path class="st0" d="M75.5,310.27l2.1-0.6c0.2,0,0.2-0.2,0.2-0.3c0-0.2-0.2-0.2-0.3-0.2l-2,0.6c-0.2,0-0.2,0.2-0.2,0.3
			C75.3,310.17,75.4,310.27,75.5,310.27z"/>
		<path class="st0" d="M163.08,294.13l3.71-1.1c0.2,0,0.2-0.2,0.2-0.3c0-0.2-0.2-0.2-0.3-0.2l-3.61,1.1c-0.2,0-0.2,0.2-0.2,0.3
			C162.88,294.03,162.98,294.13,163.08,294.13z"/>
		<path class="st0" d="M143.54,293.62h-0.1l-16.84,5.62c-0.2,0-0.2,0.2-0.2,0.3c0,0.1,0.1,0.2,0.2,0.2l16.84-5.72l6.71,2.81
			c0.1,0.1,0.2,0,0.3-0.1c0.1-0.1,0-0.2-0.1-0.3L143.54,293.62z"/>
		<path class="st0" d="M143.34,309.57l-15.73,5.72c-0.1,0-0.1,0.2-0.1,0.3c0,0.1,0.1,0.2,0.2,0.2l15.63-5.72l6.71,3.11
			c0.1,0.1,0.2,0,0.3-0.1c0.1-0.1,0-0.2-0.1-0.3L143.34,309.57z"/>
		<path class="st0" d="M169.19,272.26l-16.94,4.91c-0.2,0-0.2,0.2-0.2,0.3c0,0.1,0.1,0.2,0.2,0.2l17.04-4.91c0.2,0,0.2-0.2,0.2-0.3
			C169.5,272.26,169.29,272.26,169.19,272.26z"/>
		<path class="st0" d="M159.67,276.57l-7.42,2.21c-0.2,0-0.2,0.2-0.2,0.3c0,0.1,0.1,0.2,0.2,0.2l7.52-2.21c0.2,0,0.2-0.2,0.2-0.3
			C159.97,276.57,159.77,276.57,159.67,276.57z"/>
		<path class="st0" d="M67.78,297.64l41.19-11.23c0.2,0,0.2-0.2,0.2-0.3c0-0.2-0.2-0.2-0.3-0.2l-41.09,11.23c-0.2,0-0.2,0.2-0.2,0.3
			C67.58,297.54,67.68,297.64,67.78,297.64z"/>
		<path class="st0" d="M91.53,309.07l28.56-9.33c0.2,0,0.2-0.2,0.2-0.3c0-0.2-0.2-0.2-0.3-0.2l-28.46,9.33c-0.2,0-0.2,0.2-0.2,0.3
			C91.33,308.97,91.43,309.07,91.53,309.07z"/>
		<path class="st0" d="M120.59,308.47l-27.26,9.63c-0.2,0-0.2,0.2-0.2,0.3s0.1,0.2,0.2,0.2l27.36-9.63c0.2,0,0.2-0.2,0.2-0.3
			C120.89,308.47,120.69,308.47,120.59,308.47z"/>
		<path class="st0" d="M171.2,276.37l0.2-4.51c-0.1-2.11-1.3-4.01-3.21-5.02l-4.31-0.9c-0.3-1.3-1.2-2.21-2.41-2.61l-20.04-6.12
			c-3.11-0.9-6.41-1.1-9.62-0.5l-57.12,10.83c-5.81,1.1-11.42,3.01-16.64,5.82c-9.82,5.42-15.23,9.63-16.13,12.74
			c-0.22,0.74-0.32,1.55-0.35,2.36c-0.24,2.38,0.31,5.01,0.56,6.09c-0.57,0.72-2.01,2.82-2.01,5.4c0,0.08,0,0.19,0.01,0.3
			c0,0.03-0.01,0.06-0.01,0.1c0,0.79,0.22,3.78,0.54,7.76c-0.05,0.01-0.1,0.03-0.14,0.07c-0.1,0-0.1,0.2,0,0.3l0.18,0.2
			c0.23,2.88,0.52,6.23,0.81,9.64c-0.09,0.02-0.09,0.2,0.01,0.3l0.02,0.02c0.26,2.97,0.52,5.97,0.76,8.72
			c-0.07,0.04-0.06,0.2,0.03,0.28c0.53,6.09,0.97,10.93,1,11.43l17.14,28.38l0.11-0.05l0.09,0.15l42.19-18.67l20.34-8.91l0.1-0.1
			v-0.03l0.6-0.27v-7.56l23.14-9.36l0.31-0.12l2.6,0.9l0.49-0.2l0.01,0l27.26-11.23v-33.5L171.2,276.37z M100.35,277.78l7.22,2.41
			l-47.7,11.23c-0.4-0.4-2.71-2.51-4.81-4.71c0-0.1-0.2,0-0.3,0s-0.1,0.2,0,0.3c2.41,2.41,4.91,4.81,5.01,4.91l49.71-11.73
			l-7.22-2.41l41.69-9.93l7.72,1.5l11.32-2.41c0.03,0,0.07-0.03,0.1-0.06l4.25,0.83c-0.01,0.01-0.02,0.02-0.03,0.03
			c-0.1,0.1,0,0.2,0.1,0.3c1,0.5,1.5,1.2,1.4,1.91s-1,1.3-2.51,1.6l-16.23,4.81l-6.71-1.81h-0.1l-29.56,8.12l5.81,3.21l-59.53,16.15
			c-3.41,1-7.12-0.3-9.12-3.21l-7.12-10.03c0-0.2-0.2-0.2-0.3-0.1c-0.2,0-0.2,0.2-0.1,0.3l7.12,10.03c1.7,2.31,4.51,3.71,7.32,3.71
			c0.8,0,1.6-0.1,2.3-0.3l59.73-16.24v10.08L79.6,308.57c-0.2,0-0.2,0.2-0.2,0.3c0,0.1,0.1,0.2,0.2,0.2l40.49-12.34
			c0.2,0,0.2-0.2,0.2-0.3c0-0.09-0.04-0.14-0.1-0.17v-1.14l2.61,1.74v9.23l-62.33,23.13l-18.94-20.31c-0.36-4.55-0.6-8.03-0.6-8.88
			c0-2.15,1.22-3.99,1.8-4.75c0,0.01,0,0.02,0,0.03c-0.1,0.4-0.3,1.1-0.4,1.71c-0.3,1.5,0.1,3.01,0.9,4.21
			c0.9,1.2,2.1,2.81,3.41,4.51c1.5,1.91,3.11,4.01,4.31,5.82c1.7,2.41,4.31,3.71,7.12,3.71c0.9,0,1.7-0.1,2.2-0.2l12.43-3.71
			c0.2,0,0.2-0.2,0.2-0.3c0-0.2-0.2-0.2-0.3-0.2l-12.43,3.71c-3.41,1-7.01-0.3-9.02-3.21c-1.2-1.91-2.81-3.91-4.31-5.92
			c-1.3-1.71-2.51-3.31-3.31-4.51c-0.7-1.1-1-2.51-0.8-3.81c0.1-0.6,0.3-1.3,0.4-1.7c0.1-0.3,0.1-0.4-0.1-0.5l0.1-0.1l-0.1-0.2
			c0-0.1-1.3-4.91-0.4-8.12c0.25-0.89,0.94-1.91,2.05-3.04c2.41-2.38,6.65-5.25,12.49-8.54c0.39-0.22,0.78-0.44,1.19-0.66
			c0.6-0.33,1.21-0.64,1.82-0.95c4.55-2.24,9.45-3.81,14.42-4.77l57.02-10.83c3.11-0.6,6.31-0.4,9.32,0.5l19.94,6.12
			c0.94,0.28,1.69,1.11,1.94,2.12l-11.16,2.39l-7.72-1.5h-0.1 M60.97,366.54l-16.94-27.78c-0.07-0.66-0.43-4.78-0.88-10.11
			l17.11,21.24l0.1,0.1l50.81-20.46c0.1,0,0.2-0.2,0.1-0.3c0-0.1-0.2-0.1-0.3-0.1l-50.51,20.36l-17.38-21.59
			c-0.22-2.6-0.46-5.45-0.7-8.31l17.88,20.38l0.1,0.1l46-18.65c0.1,0,0.2-0.2,0.1-0.3c0-0.1-0.2-0.2-0.3-0.1l-45.7,18.45
			l-18.14-20.59c-0.27-3.22-0.53-6.43-0.75-9.26l18.78,20.22l62.43-23.26v25.26v0.2v7.35L60.97,366.54z M150.45,322.51l-2.61-0.9
			l-24.65,9.99v-34.86c0-0.01-0.01-0.01-0.01-0.02c-0.01-0.04-0.03-0.07-0.05-0.11c0,0,0-0.01-0.01-0.01
			c-0.01-0.02-0.02-0.04-0.04-0.06l-2.91-1.94v-2.43l22.75-6.06l7.01,3.01l24.35-7.12c0.2,0,0.2-0.2,0.2-0.3c0-0.2-0.2-0.2-0.3-0.2
			l-24.25,7.12l-7.01-3.01l-22.75,6.06v-5.56l0.6-0.2l-5.81-3.21l28.26-7.72l6.81,1.91l16.33-4.81c1.7-0.3,2.71-1,2.91-2.01
			c0.04-0.34-0.05-0.7-0.25-1.05c0.75,0.89,1.19,2,1.25,3.16l-0.2,5.01l6.51,2.11v8.76c-0.07-0.03-0.15-0.03-0.2-0.03l-21.45,6.72
			c-0.2,0-0.2,0.2-0.2,0.3s0.1,0.2,0.2,0.2l21.55-6.72c0.04,0,0.07-0.01,0.1-0.03v0.82l-8.72,2.71c-0.2,0-0.2,0.2-0.2,0.3
			s0.1,0.2,0.2,0.2l8.72-2.68v6.03c-0.07-0.03-0.15-0.03-0.2-0.03l-8.72,2.81c-0.2,0-0.2,0.2-0.2,0.3c0,0.1,0.1,0.2,0.2,0.2
			l8.82-2.81c0.04,0,0.07-0.01,0.1-0.03v0.92l-8.72,2.71c-0.11,0-0.15,0.06-0.18,0.12l-4.63,1.48c-0.2,0-0.2,0.2-0.2,0.3
			c0,0.1,0.1,0.2,0.2,0.2l4.81-1.5c0.12,0,0.17-0.08,0.19-0.16l8.53-2.63v13.88L150.45,322.51z M170.51,270.75
			c-0.46-1.37-1.43-2.56-2.71-3.24l0.19,0.04C169.26,268.26,170.14,269.41,170.51,270.75z M163.28,266.44v0.1
			c-0.14-0.85-0.64-1.55-1.34-2.03C162.66,264.92,163.13,265.59,163.28,266.44z"/>
	</g>
</g>
</svg>
